<svg id="svg" version="1.1" xmlns="http://www.w3.org/2000/svg" xmlns:xlink="http://www.w3.org/1999/xlink" width="400" height="400" viewBox="0, 0, 400,400"><g id="svgg"><path id="path0" d="M64.621 49.798 C 64.473 50.788,64.481 51.807,64.639 52.063 C 64.854 52.410,63.852 52.467,60.663 52.286 L 56.400 52.045 56.400 54.222 L 56.400 56.400 54.222 56.400 L 52.045 56.400 52.286 60.663 C 52.467 63.852,52.410 64.854,52.063 64.639 C 51.807 64.481,50.788 64.473,49.799 64.621 L 48.000 64.891 48.000 83.445 L 48.000 102.000 50.248 102.000 L 52.495 102.000 52.348 106.100 L 52.200 110.200 54.300 110.321 L 56.400 110.442 56.400 112.421 L 56.400 114.400 60.354 114.400 L 64.308 114.400 64.583 116.601 L 64.858 118.801 200.129 118.701 L 335.400 118.600 335.461 117.600 C 335.494 117.050,335.539 116.105,335.561 115.500 L 335.600 114.400 339.600 114.400 L 343.600 114.400 343.600 112.421 L 343.600 110.442 345.700 110.321 L 347.800 110.200 347.914 106.100 L 348.028 102.000 350.014 102.000 L 352.000 102.000 352.000 83.438 L 352.000 64.875 350.000 64.600 L 348.000 64.325 348.000 60.362 L 348.000 56.400 345.800 56.400 L 343.600 56.400 343.600 54.217 L 343.600 52.033 339.623 52.276 L 335.646 52.518 335.523 50.359 L 335.400 48.200 200.146 48.099 L 64.891 47.999 64.621 49.798 M265.700 51.100 C 229.565 51.156,170.435 51.156,134.300 51.100 C 98.165 51.044,127.730 50.998,200.000 50.998 C 272.270 50.998,301.835 51.044,265.700 51.100 M331.647 53.700 C 331.673 54.635,331.666 55.624,331.630 55.899 C 331.583 56.261,332.196 56.356,333.883 56.246 C 335.157 56.162,337.010 56.044,338.000 55.982 L 339.800 55.870 337.600 55.588 L 335.400 55.306 337.564 55.353 C 339.947 55.405,339.907 55.352,340.055 58.695 L 340.129 60.390 342.165 60.295 L 344.200 60.200 344.075 64.500 L 343.950 68.800 345.975 68.800 L 348.000 68.800 348.000 83.400 L 348.000 98.000 346.015 98.000 L 344.029 98.000 344.058 102.368 C 344.074 104.770,343.974 106.918,343.837 107.140 C 343.699 107.363,343.761 107.652,343.973 107.784 C 344.632 108.191,345.200 106.554,345.200 104.250 C 345.200 103.038,345.380 101.936,345.600 101.800 C 346.330 101.349,346.051 105.731,345.250 107.302 C 344.540 108.694,344.465 108.735,343.855 108.061 C 343.376 107.532,343.327 107.233,343.663 106.897 C 343.999 106.561,343.603 106.449,342.120 106.460 L 340.124 106.476 340.053 108.487 C 339.988 110.325,340.052 110.480,340.791 110.286 C 341.237 110.170,341.500 110.238,341.377 110.437 C 341.254 110.637,340.893 110.800,340.576 110.800 C 340.259 110.800,339.979 111.115,339.954 111.500 C 339.909 112.167,339.898 112.167,339.724 111.500 C 339.566 110.893,339.016 110.800,335.571 110.800 L 331.600 110.800 331.600 112.800 L 331.600 114.800 200.200 114.800 L 68.800 114.800 68.756 113.700 C 68.731 113.095,68.746 112.184,68.788 111.675 C 68.835 111.105,68.660 110.778,68.332 110.823 C 68.039 110.862,66.135 110.873,64.100 110.847 L 60.400 110.800 60.400 108.600 L 60.400 106.400 58.157 106.400 L 55.913 106.400 56.168 102.169 L 56.422 97.937 55.311 98.011 C 54.700 98.052,53.705 98.066,53.100 98.042 L 52.000 98.000 52.000 83.400 L 52.000 68.800 53.100 68.758 C 53.705 68.734,54.713 68.750,55.341 68.792 L 56.482 68.869 56.193 64.634 L 55.904 60.400 58.152 60.400 L 60.400 60.400 60.400 58.152 L 60.400 55.904 64.634 56.193 L 68.869 56.482 68.792 55.341 C 68.750 54.713,68.734 53.705,68.758 53.100 L 68.800 52.000 200.200 52.000 L 331.600 52.000 331.647 53.700 M64.938 54.300 C 65.040 54.465,64.286 54.546,63.262 54.480 C 60.341 54.293,59.986 54.097,62.476 54.046 C 63.728 54.021,64.836 54.135,64.938 54.300 M338.700 54.287 C 338.095 54.378,337.105 54.378,336.500 54.287 C 335.895 54.195,336.390 54.120,337.600 54.120 C 338.810 54.120,339.305 54.195,338.700 54.287 M63.907 55.486 C 63.306 55.577,62.226 55.579,61.507 55.490 C 60.788 55.401,61.280 55.326,62.600 55.324 C 63.920 55.322,64.508 55.395,63.907 55.486 M342.656 57.374 C 342.687 57.910,342.474 58.439,342.183 58.551 C 341.655 58.754,341.666 57.665,342.201 56.798 C 342.552 56.231,342.593 56.284,342.656 57.374 M59.200 57.823 C 59.200 58.466,57.758 59.037,57.711 58.413 C 57.672 57.892,57.897 57.672,58.427 57.712 C 58.852 57.744,59.200 57.794,59.200 57.823 M346.067 62.399 C 345.907 65.771,345.200 66.163,345.200 62.880 C 345.200 61.097,345.640 59.623,346.180 59.599 C 346.191 59.599,346.140 60.859,346.067 62.399 M54.480 63.262 C 54.546 64.286,54.465 65.040,54.300 64.938 C 54.135 64.836,54.021 63.728,54.046 62.476 C 54.097 59.986,54.293 60.341,54.480 63.262 M55.490 63.693 C 55.401 64.412,55.326 63.920,55.324 62.600 C 55.322 61.280,55.395 60.692,55.486 61.293 C 55.577 61.894,55.579 62.974,55.490 63.693 M51.100 90.674 C 51.034 94.813,50.981 91.540,50.981 83.400 C 50.981 75.260,51.034 71.873,51.099 75.874 C 51.165 79.874,51.165 86.534,51.100 90.674 M348.700 90.674 C 348.634 94.813,348.581 91.540,348.581 83.400 C 348.581 75.260,348.634 71.873,348.699 75.874 C 348.765 79.874,348.765 86.534,348.700 90.674 M54.290 105.293 C 54.201 106.012,54.126 105.520,54.124 104.200 C 54.122 102.880,54.195 102.292,54.286 102.893 C 54.377 103.494,54.379 104.574,54.290 105.293 M55.490 105.293 C 55.401 106.012,55.326 105.520,55.324 104.200 C 55.322 102.880,55.395 102.292,55.486 102.893 C 55.577 103.494,55.579 104.574,55.490 105.293 M342.638 107.662 C 342.832 107.975,342.743 108.015,342.362 107.785 C 341.883 107.497,341.881 107.547,342.349 108.123 C 342.819 108.703,342.811 108.800,342.292 108.800 C 341.958 108.800,341.589 108.548,341.470 108.239 C 341.101 107.277,342.096 106.785,342.638 107.662 M265.700 116.700 C 229.565 116.756,170.435 116.756,134.300 116.700 C 98.165 116.644,127.730 116.598,200.000 116.598 C 272.270 116.598,301.835 116.644,265.700 116.700 M65.942 164.682 C 64.849 164.850,63.939 167.730,64.627 168.843 C 64.825 169.165,63.716 169.237,60.651 169.101 L 56.400 168.912 56.401 170.956 L 56.401 173.000 54.301 173.000 L 52.200 173.000 52.351 177.352 L 52.502 181.705 50.251 181.424 L 48.000 181.142 48.000 199.971 L 48.000 218.800 50.248 218.800 L 52.495 218.800 52.348 222.900 L 52.200 227.000 54.300 227.121 L 56.400 227.242 56.400 229.221 L 56.400 231.200 60.344 231.200 L 64.287 231.200 64.644 233.300 L 65.000 235.400 200.200 235.400 L 335.400 235.400 335.521 233.300 L 335.642 231.200 339.621 231.200 L 343.600 231.200 343.600 229.221 L 343.600 227.242 345.700 227.121 L 347.800 227.000 347.914 222.900 L 348.028 218.800 350.014 218.800 L 352.000 218.800 352.000 199.962 L 352.000 181.125 350.014 181.398 L 348.028 181.671 347.914 177.336 L 347.800 173.000 345.699 173.000 L 343.599 173.000 343.599 170.952 L 343.600 168.904 339.600 169.094 L 335.600 169.283 335.561 168.141 C 335.454 165.067,335.435 165.019,334.200 164.753 C 332.921 164.478,67.730 164.408,65.942 164.682 M331.200 168.000 C 331.200 168.266,287.200 168.400,200.000 168.400 C 112.800 168.400,68.800 168.266,68.800 168.000 C 68.800 167.734,112.800 167.600,200.000 167.600 C 287.200 167.600,331.200 167.734,331.200 168.000 M331.600 170.800 L 331.600 172.800 335.800 172.800 L 340.000 172.800 340.047 174.500 C 340.073 175.435,340.069 176.410,340.038 176.667 C 340.001 176.963,340.653 177.133,341.823 177.133 C 344.160 177.133,343.984 176.783,344.032 181.529 L 344.074 185.600 346.037 185.600 L 348.000 185.600 348.093 200.300 L 348.185 215.000 348.404 200.200 L 348.624 185.400 348.693 200.562 C 348.746 212.019,348.650 215.610,348.302 215.262 C 348.048 215.008,346.965 214.800,345.895 214.800 L 343.950 214.800 344.075 219.100 L 344.200 223.400 342.165 223.305 L 340.129 223.210 340.059 225.078 C 339.971 227.405,340.435 227.174,335.739 227.231 L 331.727 227.280 331.658 229.093 C 331.620 230.090,331.781 231.136,332.014 231.417 C 332.287 231.745,332.298 232.016,332.047 232.171 C 331.832 232.304,331.542 232.230,331.404 232.007 C 331.235 231.732,288.399 231.600,199.976 231.600 L 68.800 231.600 68.758 230.500 C 68.734 229.895,68.748 228.905,68.788 228.300 L 68.860 227.200 64.630 227.200 L 60.400 227.200 60.400 225.221 L 60.400 223.242 58.300 223.121 L 56.200 223.000 56.328 218.867 L 56.455 214.734 55.328 214.809 C 54.707 214.851,53.705 214.866,53.100 214.842 L 52.000 214.800 52.000 200.089 L 52.000 185.379 54.210 185.500 L 56.420 185.622 56.167 181.411 L 55.913 177.200 58.157 177.200 L 60.400 177.200 60.400 175.000 L 60.400 172.800 64.100 172.753 C 66.135 172.727,68.039 172.738,68.332 172.777 C 68.660 172.822,68.835 172.495,68.788 171.925 C 68.746 171.416,68.731 170.505,68.756 169.900 L 68.800 168.800 200.200 168.800 L 331.600 168.800 331.600 170.800 M67.286 170.147 C 67.549 169.985,67.609 170.061,67.438 170.338 C 66.960 171.112,66.174 170.854,66.107 169.900 C 66.051 169.101,66.089 169.080,66.447 169.708 C 66.668 170.098,67.046 170.295,67.286 170.147 M334.400 170.424 C 334.400 170.657,334.220 170.736,334.000 170.600 C 333.780 170.464,333.600 170.513,333.600 170.710 C 333.600 170.906,333.333 171.067,333.006 171.067 C 332.557 171.067,332.520 170.937,332.855 170.533 C 333.383 169.897,334.400 169.825,334.400 170.424 M337.600 171.600 C 338.663 171.600,339.625 171.416,339.737 171.190 C 339.849 170.965,339.894 171.010,339.837 171.290 C 339.768 171.627,339.008 171.800,337.600 171.800 C 336.192 171.800,335.432 171.627,335.363 171.290 C 335.307 171.010,335.351 170.965,335.463 171.190 C 335.575 171.416,336.537 171.600,337.600 171.600 M65.568 172.124 C 65.551 172.386,65.461 172.420,65.369 172.200 C 65.277 171.980,64.076 171.824,62.701 171.853 L 60.200 171.906 62.600 171.647 C 65.245 171.362,65.615 171.421,65.568 172.124 M54.287 180.300 C 54.195 180.905,54.120 180.410,54.120 179.200 C 54.120 177.990,54.195 177.495,54.287 178.100 C 54.378 178.705,54.378 179.695,54.287 180.300 M55.487 180.300 C 55.395 180.905,55.320 180.410,55.320 179.200 C 55.320 177.990,55.395 177.495,55.487 178.100 C 55.578 178.705,55.578 179.695,55.487 180.300 M346.000 179.200 C 346.000 180.300,345.820 181.200,345.600 181.200 C 345.380 181.200,345.200 180.300,345.200 179.200 C 345.200 178.100,345.380 177.200,345.600 177.200 C 345.820 177.200,346.000 178.100,346.000 179.200 M51.008 200.233 L 51.015 215.000 50.903 200.420 C 50.817 189.399,50.669 185.755,50.295 185.490 C 49.933 185.233,49.961 185.183,50.400 185.303 C 50.919 185.444,51.001 187.451,51.008 200.233 M54.287 221.900 C 54.195 222.505,54.120 222.010,54.120 220.800 C 54.120 219.590,54.195 219.095,54.287 219.700 C 54.378 220.305,54.378 221.295,54.287 221.900 M55.490 222.093 C 55.401 222.812,55.326 222.320,55.324 221.000 C 55.322 219.680,55.395 219.092,55.486 219.693 C 55.577 220.294,55.579 221.374,55.490 222.093 M346.000 220.800 C 346.000 221.900,345.820 222.800,345.600 222.800 C 345.380 222.800,345.200 221.900,345.200 220.800 C 345.200 219.700,345.380 218.800,345.600 218.800 C 345.820 218.800,346.000 219.700,346.000 220.800 M63.907 227.886 C 63.306 227.977,62.226 227.979,61.507 227.890 C 60.788 227.801,61.280 227.726,62.600 227.724 C 63.920 227.722,64.508 227.795,63.907 227.886 M339.400 227.838 C 337.526 228.139,334.891 228.177,335.062 227.900 C 335.164 227.735,336.362 227.625,337.724 227.654 C 339.086 227.684,339.840 227.767,339.400 227.838 M335.429 229.571 C 335.429 229.994,335.287 230.254,335.114 230.147 C 334.941 230.040,334.800 230.138,334.800 230.364 C 334.800 230.590,334.533 230.672,334.206 230.547 C 333.725 230.363,333.783 230.176,334.506 229.573 C 334.998 229.162,335.406 228.821,335.414 228.813 C 335.422 228.806,335.429 229.147,335.429 229.571 M64.582 283.402 L 64.308 285.600 60.354 285.600 L 56.400 285.600 56.400 287.713 L 56.400 289.826 54.300 289.813 L 52.200 289.800 52.348 293.900 L 52.495 298.000 50.244 298.000 L 47.992 298.000 48.096 316.700 L 48.200 335.400 50.359 335.523 L 52.518 335.646 52.276 339.623 L 52.033 343.600 54.217 343.600 L 56.400 343.600 56.400 345.800 L 56.400 348.000 60.362 348.000 L 64.325 348.000 64.600 350.000 L 64.875 352.000 200.268 352.000 L 335.660 352.000 335.588 350.900 C 335.387 347.848,335.177 348.000,339.600 348.000 L 343.600 348.000 343.600 345.800 L 343.600 343.600 345.800 343.600 L 348.000 343.600 348.000 339.600 C 348.000 335.177,347.848 335.387,350.900 335.588 L 352.000 335.660 352.000 316.830 L 352.000 298.000 350.014 298.000 L 348.028 298.000 347.914 293.900 L 347.800 289.800 345.700 289.813 L 343.600 289.826 343.600 287.713 L 343.600 285.600 339.600 285.600 C 335.729 285.600,335.599 285.571,335.563 284.700 C 335.543 284.205,335.498 283.260,335.463 282.600 L 335.400 281.400 200.128 281.302 L 64.857 281.205 64.582 283.402 M331.371 285.554 C 331.492 285.748,331.622 286.747,331.661 287.774 C 331.722 289.400,331.839 289.632,332.566 289.576 C 333.025 289.540,334.885 289.531,336.700 289.556 L 340.000 289.600 340.000 291.600 L 340.000 293.600 342.000 293.600 L 344.000 293.600 344.044 296.900 C 344.069 298.715,344.054 300.616,344.012 301.125 C 343.965 301.695,344.140 302.022,344.468 301.977 C 344.761 301.938,345.675 301.927,346.500 301.953 L 348.000 302.000 348.000 316.800 L 348.000 331.600 346.500 331.647 C 345.675 331.673,344.761 331.662,344.468 331.623 C 344.140 331.578,343.965 331.905,344.012 332.475 C 344.054 332.984,344.069 334.930,344.045 336.800 L 344.000 340.200 341.959 340.059 L 339.917 339.917 340.059 341.959 L 340.200 344.000 336.800 344.045 C 334.930 344.069,332.984 344.054,332.475 344.012 C 331.905 343.965,331.578 344.140,331.623 344.468 C 331.662 344.761,331.673 345.675,331.647 346.500 L 331.600 348.000 200.200 348.000 L 68.800 348.000 68.800 345.975 L 68.800 343.950 64.500 344.075 L 60.200 344.200 60.295 342.165 L 60.390 340.129 58.695 340.055 C 55.352 339.907,55.405 339.947,55.353 337.564 L 55.306 335.400 55.588 337.600 L 55.870 339.800 55.982 338.000 C 56.044 337.010,56.162 335.157,56.246 333.883 C 56.356 332.196,56.261 331.583,55.899 331.630 C 55.624 331.666,54.635 331.673,53.700 331.647 L 52.000 331.600 52.000 316.800 L 52.000 302.000 53.700 301.953 C 54.635 301.927,55.627 301.935,55.905 301.971 C 56.297 302.023,56.355 301.095,56.165 297.819 L 55.921 293.600 57.661 293.553 C 58.617 293.527,59.639 293.538,59.932 293.577 C 60.260 293.622,60.435 293.295,60.388 292.725 C 60.346 292.216,60.331 291.305,60.356 290.700 L 60.400 289.600 64.600 289.600 L 68.800 289.600 68.800 287.400 L 68.800 285.200 199.976 285.200 C 275.561 285.200,331.245 285.350,331.371 285.554 M62.744 288.400 C 63.875 288.400,64.800 288.580,64.800 288.800 C 64.800 289.020,63.875 289.200,62.744 289.200 C 60.750 289.200,59.625 288.551,59.625 287.400 C 59.625 287.180,59.865 287.315,60.157 287.700 C 60.542 288.207,61.255 288.400,62.744 288.400 M337.680 288.400 C 338.736 288.400,339.600 288.580,339.600 288.800 C 339.600 289.683,335.822 289.248,335.249 288.300 C 334.822 287.593,334.819 287.507,335.233 287.900 C 335.523 288.175,336.624 288.400,337.680 288.400 M54.482 296.306 C 54.576 297.684,54.520 298.674,54.360 298.506 C 54.199 298.338,54.007 297.083,53.934 295.718 C 53.860 294.354,53.915 293.364,54.057 293.518 C 54.198 293.673,54.389 294.928,54.482 296.306 M55.490 296.893 C 55.401 297.612,55.326 297.120,55.324 295.800 C 55.322 294.480,55.395 293.892,55.486 294.493 C 55.577 295.094,55.579 296.174,55.490 296.893 M346.000 296.000 C 346.000 297.320,345.826 298.400,345.613 298.400 C 345.399 298.400,345.326 298.715,345.450 299.100 C 345.591 299.537,345.549 299.628,345.338 299.341 C 344.895 298.739,345.160 293.600,345.634 293.600 C 345.835 293.600,346.000 294.680,346.000 296.000 M55.038 300.062 C 55.212 300.343,55.148 300.415,54.876 300.247 C 54.630 300.095,54.063 300.337,53.615 300.785 C 53.167 301.233,52.800 301.430,52.800 301.223 C 52.800 300.392,54.649 299.433,55.038 300.062 M51.680 301.680 C 51.328 302.032,51.175 306.052,51.105 316.780 L 51.010 331.400 50.900 316.847 C 50.794 302.892,50.906 301.200,51.929 301.200 C 52.056 301.200,51.944 301.416,51.680 301.680 M348.699 324.300 C 348.634 328.425,348.581 325.050,348.581 316.800 C 348.581 308.550,348.634 305.175,348.699 309.300 C 348.764 313.425,348.764 320.175,348.699 324.300 M346.745 333.733 C 347.079 334.136,347.046 334.267,346.611 334.267 C 346.294 334.267,345.942 334.027,345.830 333.733 C 345.717 333.440,345.777 333.200,345.964 333.200 C 346.150 333.200,346.501 333.440,346.745 333.733 M54.287 338.700 C 54.195 339.305,54.120 338.810,54.120 337.600 C 54.120 336.390,54.195 335.895,54.287 336.500 C 54.378 337.105,54.378 338.095,54.287 338.700 M346.000 337.504 C 346.000 339.050,345.831 339.509,345.100 339.951 C 344.393 340.378,344.307 340.381,344.700 339.967 C 344.975 339.677,345.200 338.576,345.200 337.520 C 345.200 336.464,345.380 335.600,345.600 335.600 C 345.820 335.600,346.000 336.457,346.000 337.504 M58.519 342.267 C 58.283 342.882,58.281 342.883,57.399 342.544 C 56.955 342.374,56.883 342.196,57.182 342.011 C 57.933 341.547,58.736 341.700,58.519 342.267 M339.907 345.200 C 339.370 346.060,335.600 346.410,335.600 345.600 C 335.600 345.380,336.489 345.200,337.576 345.200 C 338.663 345.200,339.664 345.020,339.800 344.800 C 339.936 344.580,340.128 344.400,340.227 344.400 C 340.326 344.400,340.182 344.760,339.907 345.200 M65.200 345.567 C 65.200 345.769,63.955 345.994,62.432 346.067 C 60.252 346.172,59.753 346.094,60.081 345.700 C 60.563 345.122,65.200 345.001,65.200 345.567 M334.267 346.611 C 334.267 347.046,334.136 347.079,333.733 346.745 C 333.440 346.501,333.200 346.150,333.200 345.964 C 333.200 345.777,333.440 345.717,333.733 345.830 C 334.027 345.942,334.267 346.294,334.267 346.611 M265.868 348.700 C 229.605 348.756,170.385 348.756,134.268 348.700 C 98.150 348.644,127.820 348.598,200.200 348.598 C 272.580 348.598,302.130 348.644,265.868 348.700 " stroke="none" fill="#1c343c" fill-rule="evenodd"></path><path id="path1" d="M134.300 51.100 C 170.435 51.156,229.565 51.156,265.700 51.100 C 301.835 51.044,272.270 50.998,200.000 50.998 C 127.730 50.998,98.165 51.044,134.300 51.100 M60.311 52.293 C 61.251 52.378,62.691 52.377,63.511 52.291 C 64.330 52.205,63.560 52.136,61.800 52.137 C 60.040 52.139,59.370 52.209,60.311 52.293 M68.758 53.100 C 68.734 53.705,68.750 54.713,68.792 55.341 L 68.869 56.482 64.634 56.193 L 60.400 55.904 60.400 58.152 L 60.400 60.400 58.152 60.400 L 55.904 60.400 56.193 64.634 L 56.482 68.869 55.341 68.792 C 54.713 68.750,53.705 68.734,53.100 68.758 L 52.000 68.800 52.000 83.400 L 52.000 98.000 53.100 98.042 C 53.705 98.066,54.700 98.052,55.311 98.011 L 56.422 97.937 56.168 102.169 L 55.913 106.400 58.157 106.400 L 60.400 106.400 60.400 108.600 L 60.400 110.800 64.100 110.847 C 66.135 110.873,68.039 110.862,68.332 110.823 C 68.660 110.778,68.835 111.105,68.788 111.675 C 68.746 112.184,68.731 113.095,68.756 113.700 L 68.800 114.800 200.200 114.800 L 331.600 114.800 331.600 112.800 L 331.600 110.800 335.571 110.800 C 339.016 110.800,339.566 110.893,339.724 111.500 C 339.898 112.167,339.909 112.167,339.954 111.500 C 339.979 111.115,340.259 110.800,340.576 110.800 C 340.893 110.800,341.254 110.637,341.377 110.437 C 341.500 110.238,341.237 110.170,340.791 110.286 C 340.052 110.480,339.988 110.325,340.053 108.487 L 340.124 106.476 342.120 106.460 C 343.603 106.449,343.999 106.561,343.663 106.897 C 343.327 107.233,343.376 107.532,343.855 108.061 C 344.465 108.735,344.540 108.694,345.250 107.302 C 346.051 105.731,346.330 101.349,345.600 101.800 C 345.380 101.936,345.200 103.038,345.200 104.250 C 345.200 106.554,344.632 108.191,343.973 107.784 C 343.761 107.652,343.699 107.363,343.837 107.140 C 343.974 106.918,344.074 104.770,344.058 102.368 L 344.029 98.000 346.015 98.000 L 348.000 98.000 348.000 83.400 L 348.000 68.800 345.975 68.800 L 343.950 68.800 344.075 64.500 L 344.200 60.200 342.165 60.295 L 340.129 60.390 340.055 58.695 C 339.907 55.352,339.947 55.405,337.564 55.353 L 335.400 55.306 337.600 55.588 L 339.800 55.870 338.000 55.982 C 337.010 56.044,335.157 56.162,333.883 56.246 C 332.196 56.356,331.583 56.261,331.630 55.899 C 331.666 55.624,331.673 54.635,331.647 53.700 L 331.600 52.000 200.200 52.000 L 68.800 52.000 68.758 53.100 M336.900 52.291 C 337.725 52.378,339.075 52.378,339.900 52.291 C 340.725 52.205,340.050 52.134,338.400 52.134 C 336.750 52.134,336.075 52.205,336.900 52.291 M60.800 54.227 C 62.144 54.527,65.111 54.580,64.938 54.300 C 64.836 54.135,63.728 54.021,62.476 54.046 C 61.224 54.072,60.470 54.153,60.800 54.227 M336.500 54.287 C 337.105 54.378,338.095 54.378,338.700 54.287 C 339.305 54.195,338.810 54.120,337.600 54.120 C 336.390 54.120,335.895 54.195,336.500 54.287 M61.507 55.490 C 62.226 55.579,63.306 55.577,63.907 55.486 C 64.508 55.395,63.920 55.322,62.600 55.324 C 61.280 55.326,60.788 55.401,61.507 55.490 M342.201 56.798 C 341.666 57.665,341.655 58.754,342.183 58.551 C 342.474 58.439,342.687 57.910,342.656 57.374 C 342.593 56.284,342.552 56.231,342.201 56.798 M57.711 58.413 C 57.764 59.117,57.820 59.125,58.484 58.524 C 59.359 57.732,59.363 57.783,58.427 57.712 C 57.897 57.672,57.672 57.892,57.711 58.413 M52.137 61.800 C 52.139 63.560,52.209 64.230,52.293 63.289 C 52.378 62.349,52.377 60.909,52.291 60.089 C 52.205 59.270,52.136 60.040,52.137 61.800 M345.680 60.080 C 345.122 60.638,345.022 65.200,345.567 65.200 C 345.769 65.200,345.994 63.940,346.067 62.399 C 346.140 60.859,346.191 59.599,346.180 59.599 C 346.169 59.600,345.944 59.816,345.680 60.080 M54.046 62.476 C 54.021 63.728,54.135 64.836,54.300 64.938 C 54.465 65.040,54.546 64.286,54.480 63.262 C 54.293 60.341,54.097 59.986,54.046 62.476 M55.324 62.600 C 55.326 63.920,55.401 64.412,55.490 63.693 C 55.579 62.974,55.577 61.894,55.486 61.293 C 55.395 60.692,55.322 61.280,55.324 62.600 M50.981 83.400 C 50.981 91.540,51.034 94.813,51.100 90.674 C 51.165 86.534,51.165 79.874,51.099 75.874 C 51.034 71.873,50.981 75.260,50.981 83.400 M348.581 83.400 C 348.581 91.540,348.634 94.813,348.700 90.674 C 348.765 86.534,348.765 79.874,348.699 75.874 C 348.634 71.873,348.581 75.260,348.581 83.400 M52.134 104.800 C 52.134 106.450,52.205 107.125,52.291 106.300 C 52.378 105.475,52.378 104.125,52.291 103.300 C 52.205 102.475,52.134 103.150,52.134 104.800 M54.124 104.200 C 54.126 105.520,54.201 106.012,54.290 105.293 C 54.379 104.574,54.377 103.494,54.286 102.893 C 54.195 102.292,54.122 102.880,54.124 104.200 M55.324 104.200 C 55.326 105.520,55.401 106.012,55.490 105.293 C 55.579 104.574,55.577 103.494,55.486 102.893 C 55.395 102.292,55.322 102.880,55.324 104.200 M341.494 107.439 C 341.090 107.844,341.650 108.800,342.292 108.800 C 342.811 108.800,342.819 108.703,342.349 108.123 C 341.881 107.547,341.883 107.497,342.362 107.785 C 342.743 108.015,342.832 107.975,342.638 107.662 C 342.326 107.156,341.867 107.067,341.494 107.439 M134.300 116.700 C 170.435 116.756,229.565 116.756,265.700 116.700 C 301.835 116.644,272.270 116.598,200.000 116.598 C 127.730 116.598,98.165 116.644,134.300 116.700 M68.800 168.000 C 68.800 168.266,112.800 168.400,200.000 168.400 C 287.200 168.400,331.200 168.266,331.200 168.000 C 331.200 167.734,287.200 167.600,200.000 167.600 C 112.800 167.600,68.800 167.734,68.800 168.000 M60.691 169.089 C 61.401 169.177,62.661 169.179,63.491 169.092 C 64.321 169.005,63.740 168.933,62.200 168.931 C 60.660 168.929,59.981 169.000,60.691 169.089 M68.756 169.900 C 68.731 170.505,68.746 171.416,68.788 171.925 C 68.835 172.495,68.660 172.822,68.332 172.777 C 68.039 172.738,66.135 172.727,64.100 172.753 L 60.400 172.800 60.400 175.000 L 60.400 177.200 58.157 177.200 L 55.913 177.200 56.167 181.411 L 56.420 185.622 54.210 185.500 L 52.000 185.379 52.000 200.089 L 52.000 214.800 53.100 214.842 C 53.705 214.866,54.707 214.851,55.328 214.809 L 56.455 214.734 56.328 218.867 L 56.200 223.000 58.300 223.121 L 60.400 223.242 60.400 225.221 L 60.400 227.200 64.630 227.200 L 68.860 227.200 68.788 228.300 C 68.748 228.905,68.734 229.895,68.758 230.500 L 68.800 231.600 199.976 231.600 C 288.399 231.600,331.235 231.732,331.404 232.007 C 331.542 232.230,331.832 232.304,332.047 232.171 C 332.298 232.016,332.287 231.745,332.014 231.417 C 331.781 231.136,331.620 230.090,331.658 229.093 L 331.727 227.280 335.739 227.231 C 340.435 227.174,339.971 227.405,340.059 225.078 L 340.129 223.210 342.165 223.305 L 344.200 223.400 344.075 219.100 L 343.950 214.800 345.895 214.800 C 346.965 214.800,348.048 215.008,348.302 215.262 C 348.650 215.610,348.746 212.019,348.693 200.562 L 348.624 185.400 348.404 200.200 L 348.185 215.000 348.093 200.300 L 348.000 185.600 346.037 185.600 L 344.074 185.600 344.032 181.529 C 343.984 176.783,344.160 177.133,341.823 177.133 C 340.653 177.133,340.001 176.963,340.038 176.667 C 340.069 176.410,340.073 175.435,340.047 174.500 L 340.000 172.800 335.800 172.800 L 331.600 172.800 331.600 170.800 L 331.600 168.800 200.200 168.800 L 68.800 168.800 68.756 169.900 M336.700 169.089 C 337.415 169.178,338.585 169.178,339.300 169.089 C 340.015 169.001,339.430 168.928,338.000 168.928 C 336.570 168.928,335.985 169.001,336.700 169.089 M66.107 169.900 C 66.174 170.854,66.960 171.112,67.438 170.338 C 67.609 170.061,67.549 169.985,67.286 170.147 C 67.046 170.295,66.668 170.098,66.447 169.708 C 66.089 169.080,66.051 169.101,66.107 169.900 M332.855 170.533 C 332.520 170.937,332.557 171.067,333.006 171.067 C 333.333 171.067,333.600 170.906,333.600 170.710 C 333.600 170.513,333.780 170.464,334.000 170.600 C 334.220 170.736,334.400 170.657,334.400 170.424 C 334.400 169.825,333.383 169.897,332.855 170.533 M335.363 171.290 C 335.432 171.627,336.192 171.800,337.600 171.800 C 339.008 171.800,339.768 171.627,339.837 171.290 C 339.894 171.010,339.849 170.965,339.737 171.190 C 339.625 171.416,338.663 171.600,337.600 171.600 C 336.537 171.600,335.575 171.416,335.463 171.190 C 335.351 170.965,335.307 171.010,335.363 171.290 M62.600 171.647 L 60.200 171.906 62.701 171.853 C 64.076 171.824,65.277 171.980,65.369 172.200 C 65.461 172.420,65.551 172.386,65.568 172.124 C 65.615 171.421,65.245 171.362,62.600 171.647 M52.000 178.373 C 52.000 181.092,51.978 181.150,50.900 181.313 C 49.876 181.469,49.890 181.484,51.100 181.540 L 52.400 181.600 52.400 178.600 C 52.400 176.950,52.310 175.600,52.200 175.600 C 52.090 175.600,52.000 176.848,52.000 178.373 M54.120 179.200 C 54.120 180.410,54.195 180.905,54.287 180.300 C 54.378 179.695,54.378 178.705,54.287 178.100 C 54.195 177.495,54.120 177.990,54.120 179.200 M55.320 179.200 C 55.320 180.410,55.395 180.905,55.487 180.300 C 55.578 179.695,55.578 178.705,55.487 178.100 C 55.395 177.495,55.320 177.990,55.320 179.200 M345.200 179.200 C 345.200 180.300,345.380 181.200,345.600 181.200 C 345.820 181.200,346.000 180.300,346.000 179.200 C 346.000 178.100,345.820 177.200,345.600 177.200 C 345.380 177.200,345.200 178.100,345.200 179.200 M50.295 185.490 C 50.669 185.755,50.817 189.399,50.903 200.420 L 51.015 215.000 51.008 200.233 C 51.001 187.451,50.919 185.444,50.400 185.303 C 49.961 185.183,49.933 185.233,50.295 185.490 M52.134 221.600 C 52.134 223.250,52.205 223.925,52.291 223.100 C 52.378 222.275,52.378 220.925,52.291 220.100 C 52.205 219.275,52.134 219.950,52.134 221.600 M54.120 220.800 C 54.120 222.010,54.195 222.505,54.287 221.900 C 54.378 221.295,54.378 220.305,54.287 219.700 C 54.195 219.095,54.120 219.590,54.120 220.800 M55.324 221.000 C 55.326 222.320,55.401 222.812,55.490 222.093 C 55.579 221.374,55.577 220.294,55.486 219.693 C 55.395 219.092,55.322 219.680,55.324 221.000 M345.200 220.800 C 345.200 221.900,345.380 222.800,345.600 222.800 C 345.820 222.800,346.000 221.900,346.000 220.800 C 346.000 219.700,345.820 218.800,345.600 218.800 C 345.380 218.800,345.200 219.700,345.200 220.800 M61.507 227.890 C 62.226 227.979,63.306 227.977,63.907 227.886 C 64.508 227.795,63.920 227.722,62.600 227.724 C 61.280 227.726,60.788 227.801,61.507 227.890 M335.062 227.900 C 334.960 228.065,335.714 228.147,336.738 228.083 C 339.912 227.884,340.309 227.711,337.724 227.654 C 336.362 227.625,335.164 227.735,335.062 227.900 M334.506 229.573 C 333.783 230.176,333.725 230.363,334.206 230.547 C 334.533 230.672,334.800 230.590,334.800 230.364 C 334.800 230.138,334.941 230.040,335.114 230.147 C 335.287 230.254,335.429 229.994,335.429 229.571 C 335.429 229.147,335.422 228.806,335.414 228.813 C 335.406 228.821,334.998 229.162,334.506 229.573 M68.800 287.400 L 68.800 289.600 64.600 289.600 L 60.400 289.600 60.356 290.700 C 60.331 291.305,60.346 292.216,60.388 292.725 C 60.435 293.295,60.260 293.622,59.932 293.577 C 59.639 293.538,58.617 293.527,57.661 293.553 L 55.921 293.600 56.165 297.819 C 56.355 301.095,56.297 302.023,55.905 301.971 C 55.627 301.935,54.635 301.927,53.700 301.953 L 52.000 302.000 52.000 316.800 L 52.000 331.600 53.700 331.647 C 54.635 331.673,55.624 331.666,55.899 331.630 C 56.261 331.583,56.356 332.196,56.246 333.883 C 56.162 335.157,56.044 337.010,55.982 338.000 L 55.870 339.800 55.588 337.600 L 55.306 335.400 55.353 337.564 C 55.405 339.947,55.352 339.907,58.695 340.055 L 60.390 340.129 60.295 342.165 L 60.200 344.200 64.500 344.075 L 68.800 343.950 68.800 345.975 L 68.800 348.000 200.200 348.000 L 331.600 348.000 331.647 346.500 C 331.673 345.675,331.662 344.761,331.623 344.468 C 331.578 344.140,331.905 343.965,332.475 344.012 C 332.984 344.054,334.930 344.069,336.800 344.045 L 340.200 344.000 340.059 341.959 L 339.917 339.917 341.959 340.059 L 344.000 340.200 344.045 336.800 C 344.069 334.930,344.054 332.984,344.012 332.475 C 343.965 331.905,344.140 331.578,344.468 331.623 C 344.761 331.662,345.675 331.673,346.500 331.647 L 348.000 331.600 348.000 316.800 L 348.000 302.000 346.500 301.953 C 345.675 301.927,344.761 301.938,344.468 301.977 C 344.140 302.022,343.965 301.695,344.012 301.125 C 344.054 300.616,344.069 298.715,344.044 296.900 L 344.000 293.600 342.000 293.600 L 340.000 293.600 340.000 291.600 L 340.000 289.600 336.700 289.556 C 334.885 289.531,333.025 289.540,332.566 289.576 C 331.839 289.632,331.722 289.400,331.661 287.774 C 331.622 286.747,331.492 285.748,331.371 285.554 C 331.245 285.350,275.561 285.200,199.976 285.200 L 68.800 285.200 68.800 287.400 M59.625 287.400 C 59.625 288.551,60.750 289.200,62.744 289.200 C 63.875 289.200,64.800 289.020,64.800 288.800 C 64.800 288.580,63.875 288.400,62.744 288.400 C 61.255 288.400,60.542 288.207,60.157 287.700 C 59.865 287.315,59.625 287.180,59.625 287.400 M335.249 288.300 C 335.822 289.248,339.600 289.683,339.600 288.800 C 339.600 288.580,338.736 288.400,337.680 288.400 C 336.624 288.400,335.523 288.175,335.233 287.900 C 334.819 287.507,334.822 287.593,335.249 288.300 M52.134 295.200 C 52.134 296.850,52.205 297.525,52.291 296.700 C 52.378 295.875,52.378 294.525,52.291 293.700 C 52.205 292.875,52.134 293.550,52.134 295.200 M53.934 295.718 C 54.007 297.083,54.199 298.338,54.360 298.506 C 54.718 298.881,54.416 293.913,54.057 293.518 C 53.915 293.364,53.860 294.354,53.934 295.718 M55.324 295.800 C 55.326 297.120,55.401 297.612,55.490 296.893 C 55.579 296.174,55.577 295.094,55.486 294.493 C 55.395 293.892,55.322 294.480,55.324 295.800 M345.134 296.241 C 345.060 297.693,345.152 299.088,345.338 299.341 C 345.549 299.628,345.591 299.537,345.450 299.100 C 345.326 298.715,345.399 298.400,345.613 298.400 C 345.826 298.400,346.000 297.320,346.000 296.000 C 346.000 292.747,345.302 292.942,345.134 296.241 M53.689 300.223 C 53.200 300.565,52.800 301.015,52.800 301.223 C 52.800 301.430,53.167 301.233,53.615 300.785 C 54.063 300.337,54.630 300.095,54.876 300.247 C 55.148 300.415,55.212 300.343,55.038 300.062 C 54.683 299.487,54.751 299.479,53.689 300.223 M51.244 301.747 C 50.919 302.139,50.821 306.432,50.900 316.847 L 51.010 331.400 51.105 316.780 C 51.175 306.052,51.328 302.032,51.680 301.680 C 51.944 301.416,52.056 301.200,51.929 301.200 C 51.802 301.200,51.494 301.446,51.244 301.747 M348.581 316.800 C 348.581 325.050,348.634 328.425,348.699 324.300 C 348.764 320.175,348.764 313.425,348.699 309.300 C 348.634 305.175,348.581 308.550,348.581 316.800 M345.830 333.733 C 345.942 334.027,346.294 334.267,346.611 334.267 C 347.046 334.267,347.079 334.136,346.745 333.733 C 346.501 333.440,346.150 333.200,345.964 333.200 C 345.777 333.200,345.717 333.440,345.830 333.733 M52.134 338.400 C 52.134 340.050,52.205 340.725,52.291 339.900 C 52.378 339.075,52.378 337.725,52.291 336.900 C 52.205 336.075,52.134 336.750,52.134 338.400 M54.120 337.600 C 54.120 338.810,54.195 339.305,54.287 338.700 C 54.378 338.095,54.378 337.105,54.287 336.500 C 54.195 335.895,54.120 336.390,54.120 337.600 M345.200 337.520 C 345.200 338.576,344.975 339.677,344.700 339.967 C 344.307 340.381,344.393 340.378,345.100 339.951 C 346.048 339.378,346.483 335.600,345.600 335.600 C 345.380 335.600,345.200 336.464,345.200 337.520 M57.182 342.011 C 56.883 342.196,56.955 342.374,57.399 342.544 C 58.281 342.883,58.283 342.882,58.519 342.267 C 58.736 341.700,57.933 341.547,57.182 342.011 M339.800 344.800 C 339.664 345.020,338.663 345.200,337.576 345.200 C 336.489 345.200,335.600 345.380,335.600 345.600 C 335.600 346.410,339.370 346.060,339.907 345.200 C 340.182 344.760,340.326 344.400,340.227 344.400 C 340.128 344.400,339.936 344.580,339.800 344.800 M60.081 345.700 C 59.753 346.094,60.252 346.172,62.432 346.067 C 63.955 345.994,65.200 345.769,65.200 345.567 C 65.200 345.001,60.563 345.122,60.081 345.700 M333.200 345.964 C 333.200 346.150,333.440 346.501,333.733 346.745 C 334.136 347.079,334.267 347.046,334.267 346.611 C 334.267 346.294,334.027 345.942,333.733 345.830 C 333.440 345.717,333.200 345.777,333.200 345.964 M134.268 348.700 C 170.385 348.756,229.605 348.756,265.868 348.700 C 302.130 348.644,272.580 348.598,200.200 348.598 C 127.820 348.598,98.150 348.644,134.268 348.700 " stroke="none" fill="#20343c" fill-rule="evenodd"></path><path id="path2" d="M134.300 51.100 C 170.435 51.156,229.565 51.156,265.700 51.100 C 301.835 51.044,272.270 50.998,200.000 50.998 C 127.730 50.998,98.165 51.044,134.300 51.100 M60.311 52.293 C 61.251 52.378,62.691 52.377,63.511 52.291 C 64.330 52.205,63.560 52.136,61.800 52.137 C 60.040 52.139,59.370 52.209,60.311 52.293 M68.758 53.100 C 68.734 53.705,68.750 54.713,68.792 55.341 L 68.869 56.482 64.634 56.193 L 60.400 55.904 60.400 58.152 L 60.400 60.400 58.152 60.400 L 55.904 60.400 56.193 64.634 L 56.482 68.869 55.341 68.792 C 54.713 68.750,53.705 68.734,53.100 68.758 L 52.000 68.800 52.000 83.400 L 52.000 98.000 53.100 98.042 C 53.705 98.066,54.700 98.052,55.311 98.011 L 56.422 97.937 56.168 102.169 L 55.913 106.400 58.157 106.400 L 60.400 106.400 60.400 108.600 L 60.400 110.800 64.100 110.847 C 66.135 110.873,68.039 110.862,68.332 110.823 C 68.660 110.778,68.835 111.105,68.788 111.675 C 68.746 112.184,68.731 113.095,68.756 113.700 L 68.800 114.800 200.200 114.800 L 331.600 114.800 331.600 112.800 L 331.600 110.800 335.571 110.800 C 339.016 110.800,339.566 110.893,339.724 111.500 C 339.898 112.167,339.909 112.167,339.954 111.500 C 339.979 111.115,340.259 110.800,340.576 110.800 C 340.893 110.800,341.254 110.637,341.377 110.437 C 341.500 110.238,341.237 110.170,340.791 110.286 C 340.052 110.480,339.988 110.325,340.053 108.487 L 340.124 106.476 342.120 106.460 C 343.603 106.449,343.999 106.561,343.663 106.897 C 343.327 107.233,343.376 107.532,343.855 108.061 C 344.465 108.735,344.540 108.694,345.250 107.302 C 346.051 105.731,346.330 101.349,345.600 101.800 C 345.380 101.936,345.200 103.038,345.200 104.250 C 345.200 106.554,344.632 108.191,343.973 107.784 C 343.761 107.652,343.699 107.363,343.837 107.140 C 343.974 106.918,344.074 104.770,344.058 102.368 L 344.029 98.000 346.015 98.000 L 348.000 98.000 348.000 83.400 L 348.000 68.800 345.975 68.800 L 343.950 68.800 344.075 64.500 L 344.200 60.200 342.165 60.295 L 340.129 60.390 340.055 58.695 C 339.907 55.352,339.947 55.405,337.564 55.353 L 335.400 55.306 337.600 55.588 L 339.800 55.870 338.000 55.982 C 337.010 56.044,335.157 56.162,333.883 56.246 C 332.196 56.356,331.583 56.261,331.630 55.899 C 331.666 55.624,331.673 54.635,331.647 53.700 L 331.600 52.000 200.200 52.000 L 68.800 52.000 68.758 53.100 M336.900 52.291 C 337.725 52.378,339.075 52.378,339.900 52.291 C 340.725 52.205,340.050 52.134,338.400 52.134 C 336.750 52.134,336.075 52.205,336.900 52.291 M60.800 54.227 C 62.144 54.527,65.111 54.580,64.938 54.300 C 64.836 54.135,63.728 54.021,62.476 54.046 C 61.224 54.072,60.470 54.153,60.800 54.227 M336.500 54.287 C 337.105 54.378,338.095 54.378,338.700 54.287 C 339.305 54.195,338.810 54.120,337.600 54.120 C 336.390 54.120,335.895 54.195,336.500 54.287 M61.507 55.490 C 62.226 55.579,63.306 55.577,63.907 55.486 C 64.508 55.395,63.920 55.322,62.600 55.324 C 61.280 55.326,60.788 55.401,61.507 55.490 M342.201 56.798 C 341.666 57.665,341.655 58.754,342.183 58.551 C 342.474 58.439,342.687 57.910,342.656 57.374 C 342.593 56.284,342.552 56.231,342.201 56.798 M57.711 58.413 C 57.764 59.117,57.820 59.125,58.484 58.524 C 59.359 57.732,59.363 57.783,58.427 57.712 C 57.897 57.672,57.672 57.892,57.711 58.413 M52.137 61.800 C 52.139 63.560,52.209 64.230,52.293 63.289 C 52.378 62.349,52.377 60.909,52.291 60.089 C 52.205 59.270,52.136 60.040,52.137 61.800 M345.680 60.080 C 345.122 60.638,345.022 65.200,345.567 65.200 C 345.769 65.200,345.994 63.940,346.067 62.399 C 346.140 60.859,346.191 59.599,346.180 59.599 C 346.169 59.600,345.944 59.816,345.680 60.080 M54.046 62.476 C 54.021 63.728,54.135 64.836,54.300 64.938 C 54.465 65.040,54.546 64.286,54.480 63.262 C 54.293 60.341,54.097 59.986,54.046 62.476 M55.324 62.600 C 55.326 63.920,55.401 64.412,55.490 63.693 C 55.579 62.974,55.577 61.894,55.486 61.293 C 55.395 60.692,55.322 61.280,55.324 62.600 M50.981 83.400 C 50.981 91.540,51.034 94.813,51.100 90.674 C 51.165 86.534,51.165 79.874,51.099 75.874 C 51.034 71.873,50.981 75.260,50.981 83.400 M348.581 83.400 C 348.581 91.540,348.634 94.813,348.700 90.674 C 348.765 86.534,348.765 79.874,348.699 75.874 C 348.634 71.873,348.581 75.260,348.581 83.400 M52.134 104.800 C 52.134 106.450,52.205 107.125,52.291 106.300 C 52.378 105.475,52.378 104.125,52.291 103.300 C 52.205 102.475,52.134 103.150,52.134 104.800 M54.124 104.200 C 54.126 105.520,54.201 106.012,54.290 105.293 C 54.379 104.574,54.377 103.494,54.286 102.893 C 54.195 102.292,54.122 102.880,54.124 104.200 M55.324 104.200 C 55.326 105.520,55.401 106.012,55.490 105.293 C 55.579 104.574,55.577 103.494,55.486 102.893 C 55.395 102.292,55.322 102.880,55.324 104.200 M341.494 107.439 C 341.090 107.844,341.650 108.800,342.292 108.800 C 342.811 108.800,342.819 108.703,342.349 108.123 C 341.881 107.547,341.883 107.497,342.362 107.785 C 342.743 108.015,342.832 107.975,342.638 107.662 C 342.326 107.156,341.867 107.067,341.494 107.439 M134.300 116.700 C 170.435 116.756,229.565 116.756,265.700 116.700 C 301.835 116.644,272.270 116.598,200.000 116.598 C 127.730 116.598,98.165 116.644,134.300 116.700 M68.800 168.000 C 68.800 168.266,112.800 168.400,200.000 168.400 C 287.200 168.400,331.200 168.266,331.200 168.000 C 331.200 167.734,287.200 167.600,200.000 167.600 C 112.800 167.600,68.800 167.734,68.800 168.000 M60.691 169.089 C 61.401 169.177,62.661 169.179,63.491 169.092 C 64.321 169.005,63.740 168.933,62.200 168.931 C 60.660 168.929,59.981 169.000,60.691 169.089 M68.756 169.900 C 68.731 170.505,68.746 171.416,68.788 171.925 C 68.835 172.495,68.660 172.822,68.332 172.777 C 68.039 172.738,66.135 172.727,64.100 172.753 L 60.400 172.800 60.400 175.000 L 60.400 177.200 58.157 177.200 L 55.913 177.200 56.167 181.411 L 56.420 185.622 54.210 185.500 L 52.000 185.379 52.000 200.089 L 52.000 214.800 53.100 214.842 C 53.705 214.866,54.707 214.851,55.328 214.809 L 56.455 214.734 56.328 218.867 L 56.200 223.000 58.300 223.121 L 60.400 223.242 60.400 225.221 L 60.400 227.200 64.630 227.200 L 68.860 227.200 68.788 228.300 C 68.748 228.905,68.734 229.895,68.758 230.500 L 68.800 231.600 199.976 231.600 C 288.399 231.600,331.235 231.732,331.404 232.007 C 331.542 232.230,331.832 232.304,332.047 232.171 C 332.298 232.016,332.287 231.745,332.014 231.417 C 331.781 231.136,331.620 230.090,331.658 229.093 L 331.727 227.280 335.739 227.231 C 340.435 227.174,339.971 227.405,340.059 225.078 L 340.129 223.210 342.165 223.305 L 344.200 223.400 344.075 219.100 L 343.950 214.800 345.895 214.800 C 346.965 214.800,348.048 215.008,348.302 215.262 C 348.650 215.610,348.746 212.019,348.693 200.562 L 348.624 185.400 348.404 200.200 L 348.185 215.000 348.093 200.300 L 348.000 185.600 346.037 185.600 L 344.074 185.600 344.032 181.529 C 343.984 176.783,344.160 177.133,341.823 177.133 C 340.653 177.133,340.001 176.963,340.038 176.667 C 340.069 176.410,340.073 175.435,340.047 174.500 L 340.000 172.800 335.800 172.800 L 331.600 172.800 331.600 170.800 L 331.600 168.800 200.200 168.800 L 68.800 168.800 68.756 169.900 M336.700 169.089 C 337.415 169.178,338.585 169.178,339.300 169.089 C 340.015 169.001,339.430 168.928,338.000 168.928 C 336.570 168.928,335.985 169.001,336.700 169.089 M66.107 169.900 C 66.174 170.854,66.960 171.112,67.438 170.338 C 67.609 170.061,67.549 169.985,67.286 170.147 C 67.046 170.295,66.668 170.098,66.447 169.708 C 66.089 169.080,66.051 169.101,66.107 169.900 M332.855 170.533 C 332.520 170.937,332.557 171.067,333.006 171.067 C 333.333 171.067,333.600 170.906,333.600 170.710 C 333.600 170.513,333.780 170.464,334.000 170.600 C 334.220 170.736,334.400 170.657,334.400 170.424 C 334.400 169.825,333.383 169.897,332.855 170.533 M335.363 171.290 C 335.432 171.627,336.192 171.800,337.600 171.800 C 339.008 171.800,339.768 171.627,339.837 171.290 C 339.894 171.010,339.849 170.965,339.737 171.190 C 339.625 171.416,338.663 171.600,337.600 171.600 C 336.537 171.600,335.575 171.416,335.463 171.190 C 335.351 170.965,335.307 171.010,335.363 171.290 M62.600 171.647 L 60.200 171.906 62.701 171.853 C 64.076 171.824,65.277 171.980,65.369 172.200 C 65.461 172.420,65.551 172.386,65.568 172.124 C 65.615 171.421,65.245 171.362,62.600 171.647 M52.000 178.373 C 52.000 181.092,51.978 181.150,50.900 181.313 C 49.876 181.469,49.890 181.484,51.100 181.540 L 52.400 181.600 52.400 178.600 C 52.400 176.950,52.310 175.600,52.200 175.600 C 52.090 175.600,52.000 176.848,52.000 178.373 M54.120 179.200 C 54.120 180.410,54.195 180.905,54.287 180.300 C 54.378 179.695,54.378 178.705,54.287 178.100 C 54.195 177.495,54.120 177.990,54.120 179.200 M55.320 179.200 C 55.320 180.410,55.395 180.905,55.487 180.300 C 55.578 179.695,55.578 178.705,55.487 178.100 C 55.395 177.495,55.320 177.990,55.320 179.200 M345.200 179.200 C 345.200 180.300,345.380 181.200,345.600 181.200 C 345.820 181.200,346.000 180.300,346.000 179.200 C 346.000 178.100,345.820 177.200,345.600 177.200 C 345.380 177.200,345.200 178.100,345.200 179.200 M50.295 185.490 C 50.669 185.755,50.817 189.399,50.903 200.420 L 51.015 215.000 51.008 200.233 C 51.001 187.451,50.919 185.444,50.400 185.303 C 49.961 185.183,49.933 185.233,50.295 185.490 M52.134 221.600 C 52.134 223.250,52.205 223.925,52.291 223.100 C 52.378 222.275,52.378 220.925,52.291 220.100 C 52.205 219.275,52.134 219.950,52.134 221.600 M54.120 220.800 C 54.120 222.010,54.195 222.505,54.287 221.900 C 54.378 221.295,54.378 220.305,54.287 219.700 C 54.195 219.095,54.120 219.590,54.120 220.800 M55.324 221.000 C 55.326 222.320,55.401 222.812,55.490 222.093 C 55.579 221.374,55.577 220.294,55.486 219.693 C 55.395 219.092,55.322 219.680,55.324 221.000 M345.200 220.800 C 345.200 221.900,345.380 222.800,345.600 222.800 C 345.820 222.800,346.000 221.900,346.000 220.800 C 346.000 219.700,345.820 218.800,345.600 218.800 C 345.380 218.800,345.200 219.700,345.200 220.800 M61.507 227.890 C 62.226 227.979,63.306 227.977,63.907 227.886 C 64.508 227.795,63.920 227.722,62.600 227.724 C 61.280 227.726,60.788 227.801,61.507 227.890 M335.062 227.900 C 334.960 228.065,335.714 228.147,336.738 228.083 C 339.912 227.884,340.309 227.711,337.724 227.654 C 336.362 227.625,335.164 227.735,335.062 227.900 M334.506 229.573 C 333.783 230.176,333.725 230.363,334.206 230.547 C 334.533 230.672,334.800 230.590,334.800 230.364 C 334.800 230.138,334.941 230.040,335.114 230.147 C 335.287 230.254,335.429 229.994,335.429 229.571 C 335.429 229.147,335.422 228.806,335.414 228.813 C 335.406 228.821,334.998 229.162,334.506 229.573 M68.800 287.400 L 68.800 289.600 64.600 289.600 L 60.400 289.600 60.356 290.700 C 60.331 291.305,60.346 292.216,60.388 292.725 C 60.435 293.295,60.260 293.622,59.932 293.577 C 59.639 293.538,58.617 293.527,57.661 293.553 L 55.921 293.600 56.165 297.819 C 56.355 301.095,56.297 302.023,55.905 301.971 C 55.627 301.935,54.635 301.927,53.700 301.953 L 52.000 302.000 52.000 316.800 L 52.000 331.600 53.700 331.647 C 54.635 331.673,55.624 331.666,55.899 331.630 C 56.261 331.583,56.356 332.196,56.246 333.883 C 56.162 335.157,56.044 337.010,55.982 338.000 L 55.870 339.800 55.588 337.600 L 55.306 335.400 55.353 337.564 C 55.405 339.947,55.352 339.907,58.695 340.055 L 60.390 340.129 60.295 342.165 L 60.200 344.200 64.500 344.075 L 68.800 343.950 68.800 345.975 L 68.800 348.000 200.200 348.000 L 331.600 348.000 331.647 346.500 C 331.673 345.675,331.662 344.761,331.623 344.468 C 331.578 344.140,331.905 343.965,332.475 344.012 C 332.984 344.054,334.930 344.069,336.800 344.045 L 340.200 344.000 340.059 341.959 L 339.917 339.917 341.959 340.059 L 344.000 340.200 344.045 336.800 C 344.069 334.930,344.054 332.984,344.012 332.475 C 343.965 331.905,344.140 331.578,344.468 331.623 C 344.761 331.662,345.675 331.673,346.500 331.647 L 348.000 331.600 348.000 316.800 L 348.000 302.000 346.500 301.953 C 345.675 301.927,344.761 301.938,344.468 301.977 C 344.140 302.022,343.965 301.695,344.012 301.125 C 344.054 300.616,344.069 298.715,344.044 296.900 L 344.000 293.600 342.000 293.600 L 340.000 293.600 340.000 291.600 L 340.000 289.600 336.700 289.556 C 334.885 289.531,333.025 289.540,332.566 289.576 C 331.839 289.632,331.722 289.400,331.661 287.774 C 331.622 286.747,331.492 285.748,331.371 285.554 C 331.245 285.350,275.561 285.200,199.976 285.200 L 68.800 285.200 68.800 287.400 M59.625 287.400 C 59.625 288.551,60.750 289.200,62.744 289.200 C 63.875 289.200,64.800 289.020,64.800 288.800 C 64.800 288.580,63.875 288.400,62.744 288.400 C 61.255 288.400,60.542 288.207,60.157 287.700 C 59.865 287.315,59.625 287.180,59.625 287.400 M335.249 288.300 C 335.822 289.248,339.600 289.683,339.600 288.800 C 339.600 288.580,338.736 288.400,337.680 288.400 C 336.624 288.400,335.523 288.175,335.233 287.900 C 334.819 287.507,334.822 287.593,335.249 288.300 M52.134 295.200 C 52.134 296.850,52.205 297.525,52.291 296.700 C 52.378 295.875,52.378 294.525,52.291 293.700 C 52.205 292.875,52.134 293.550,52.134 295.200 M53.934 295.718 C 54.007 297.083,54.199 298.338,54.360 298.506 C 54.718 298.881,54.416 293.913,54.057 293.518 C 53.915 293.364,53.860 294.354,53.934 295.718 M55.324 295.800 C 55.326 297.120,55.401 297.612,55.490 296.893 C 55.579 296.174,55.577 295.094,55.486 294.493 C 55.395 293.892,55.322 294.480,55.324 295.800 M345.134 296.241 C 345.060 297.693,345.152 299.088,345.338 299.341 C 345.549 299.628,345.591 299.537,345.450 299.100 C 345.326 298.715,345.399 298.400,345.613 298.400 C 345.826 298.400,346.000 297.320,346.000 296.000 C 346.000 292.747,345.302 292.942,345.134 296.241 M53.689 300.223 C 53.200 300.565,52.800 301.015,52.800 301.223 C 52.800 301.430,53.167 301.233,53.615 300.785 C 54.063 300.337,54.630 300.095,54.876 300.247 C 55.148 300.415,55.212 300.343,55.038 300.062 C 54.683 299.487,54.751 299.479,53.689 300.223 M51.244 301.747 C 50.919 302.139,50.821 306.432,50.900 316.847 L 51.010 331.400 51.105 316.780 C 51.175 306.052,51.328 302.032,51.680 301.680 C 51.944 301.416,52.056 301.200,51.929 301.200 C 51.802 301.200,51.494 301.446,51.244 301.747 M348.581 316.800 C 348.581 325.050,348.634 328.425,348.699 324.300 C 348.764 320.175,348.764 313.425,348.699 309.300 C 348.634 305.175,348.581 308.550,348.581 316.800 M345.830 333.733 C 345.942 334.027,346.294 334.267,346.611 334.267 C 347.046 334.267,347.079 334.136,346.745 333.733 C 346.501 333.440,346.150 333.200,345.964 333.200 C 345.777 333.200,345.717 333.440,345.830 333.733 M52.134 338.400 C 52.134 340.050,52.205 340.725,52.291 339.900 C 52.378 339.075,52.378 337.725,52.291 336.900 C 52.205 336.075,52.134 336.750,52.134 338.400 M54.120 337.600 C 54.120 338.810,54.195 339.305,54.287 338.700 C 54.378 338.095,54.378 337.105,54.287 336.500 C 54.195 335.895,54.120 336.390,54.120 337.600 M345.200 337.520 C 345.200 338.576,344.975 339.677,344.700 339.967 C 344.307 340.381,344.393 340.378,345.100 339.951 C 346.048 339.378,346.483 335.600,345.600 335.600 C 345.380 335.600,345.200 336.464,345.200 337.520 M57.182 342.011 C 56.883 342.196,56.955 342.374,57.399 342.544 C 58.281 342.883,58.283 342.882,58.519 342.267 C 58.736 341.700,57.933 341.547,57.182 342.011 M339.800 344.800 C 339.664 345.020,338.663 345.200,337.576 345.200 C 336.489 345.200,335.600 345.380,335.600 345.600 C 335.600 346.410,339.370 346.060,339.907 345.200 C 340.182 344.760,340.326 344.400,340.227 344.400 C 340.128 344.400,339.936 344.580,339.800 344.800 M60.081 345.700 C 59.753 346.094,60.252 346.172,62.432 346.067 C 63.955 345.994,65.200 345.769,65.200 345.567 C 65.200 345.001,60.563 345.122,60.081 345.700 M333.200 345.964 C 333.200 346.150,333.440 346.501,333.733 346.745 C 334.136 347.079,334.267 347.046,334.267 346.611 C 334.267 346.294,334.027 345.942,333.733 345.830 C 333.440 345.717,333.200 345.777,333.200 345.964 M134.268 348.700 C 170.385 348.756,229.605 348.756,265.868 348.700 C 302.130 348.644,272.580 348.598,200.200 348.598 C 127.820 348.598,98.150 348.644,134.268 348.700 " stroke="none" fill="#20343c" fill-rule="evenodd"></path><path id="path3" d="M134.300 51.100 C 170.435 51.156,229.565 51.156,265.700 51.100 C 301.835 51.044,272.270 50.998,200.000 50.998 C 127.730 50.998,98.165 51.044,134.300 51.100 M60.311 52.293 C 61.251 52.378,62.691 52.377,63.511 52.291 C 64.330 52.205,63.560 52.136,61.800 52.137 C 60.040 52.139,59.370 52.209,60.311 52.293 M68.758 53.100 C 68.734 53.705,68.750 54.713,68.792 55.341 L 68.869 56.482 64.634 56.193 L 60.400 55.904 60.400 58.152 L 60.400 60.400 58.152 60.400 L 55.904 60.400 56.193 64.634 L 56.482 68.869 55.341 68.792 C 54.713 68.750,53.705 68.734,53.100 68.758 L 52.000 68.800 52.000 83.400 L 52.000 98.000 53.100 98.042 C 53.705 98.066,54.700 98.052,55.311 98.011 L 56.422 97.937 56.168 102.169 L 55.913 106.400 58.157 106.400 L 60.400 106.400 60.400 108.600 L 60.400 110.800 64.100 110.847 C 66.135 110.873,68.039 110.862,68.332 110.823 C 68.660 110.778,68.835 111.105,68.788 111.675 C 68.746 112.184,68.731 113.095,68.756 113.700 L 68.800 114.800 200.200 114.800 L 331.600 114.800 331.600 112.800 L 331.600 110.800 335.571 110.800 C 339.016 110.800,339.566 110.893,339.724 111.500 C 339.898 112.167,339.909 112.167,339.954 111.500 C 339.979 111.115,340.259 110.800,340.576 110.800 C 340.893 110.800,341.254 110.637,341.377 110.437 C 341.500 110.238,341.237 110.170,340.791 110.286 C 340.052 110.480,339.988 110.325,340.053 108.487 L 340.124 106.476 342.120 106.460 C 343.603 106.449,343.999 106.561,343.663 106.897 C 343.327 107.233,343.376 107.532,343.855 108.061 C 344.465 108.735,344.540 108.694,345.250 107.302 C 346.051 105.731,346.330 101.349,345.600 101.800 C 345.380 101.936,345.200 103.038,345.200 104.250 C 345.200 106.554,344.632 108.191,343.973 107.784 C 343.761 107.652,343.699 107.363,343.837 107.140 C 343.974 106.918,344.074 104.770,344.058 102.368 L 344.029 98.000 346.015 98.000 L 348.000 98.000 348.000 83.400 L 348.000 68.800 345.975 68.800 L 343.950 68.800 344.075 64.500 L 344.200 60.200 342.165 60.295 L 340.129 60.390 340.055 58.695 C 339.907 55.352,339.947 55.405,337.564 55.353 L 335.400 55.306 337.600 55.588 L 339.800 55.870 338.000 55.982 C 337.010 56.044,335.157 56.162,333.883 56.246 C 332.196 56.356,331.583 56.261,331.630 55.899 C 331.666 55.624,331.673 54.635,331.647 53.700 L 331.600 52.000 200.200 52.000 L 68.800 52.000 68.758 53.100 M336.900 52.291 C 337.725 52.378,339.075 52.378,339.900 52.291 C 340.725 52.205,340.050 52.134,338.400 52.134 C 336.750 52.134,336.075 52.205,336.900 52.291 M60.800 54.227 C 62.144 54.527,65.111 54.580,64.938 54.300 C 64.836 54.135,63.728 54.021,62.476 54.046 C 61.224 54.072,60.470 54.153,60.800 54.227 M336.500 54.287 C 337.105 54.378,338.095 54.378,338.700 54.287 C 339.305 54.195,338.810 54.120,337.600 54.120 C 336.390 54.120,335.895 54.195,336.500 54.287 M61.507 55.490 C 62.226 55.579,63.306 55.577,63.907 55.486 C 64.508 55.395,63.920 55.322,62.600 55.324 C 61.280 55.326,60.788 55.401,61.507 55.490 M342.201 56.798 C 341.666 57.665,341.655 58.754,342.183 58.551 C 342.474 58.439,342.687 57.910,342.656 57.374 C 342.593 56.284,342.552 56.231,342.201 56.798 M57.711 58.413 C 57.764 59.117,57.820 59.125,58.484 58.524 C 59.359 57.732,59.363 57.783,58.427 57.712 C 57.897 57.672,57.672 57.892,57.711 58.413 M52.137 61.800 C 52.139 63.560,52.209 64.230,52.293 63.289 C 52.378 62.349,52.377 60.909,52.291 60.089 C 52.205 59.270,52.136 60.040,52.137 61.800 M345.680 60.080 C 345.122 60.638,345.022 65.200,345.567 65.200 C 345.769 65.200,345.994 63.940,346.067 62.399 C 346.140 60.859,346.191 59.599,346.180 59.599 C 346.169 59.600,345.944 59.816,345.680 60.080 M54.046 62.476 C 54.021 63.728,54.135 64.836,54.300 64.938 C 54.465 65.040,54.546 64.286,54.480 63.262 C 54.293 60.341,54.097 59.986,54.046 62.476 M55.324 62.600 C 55.326 63.920,55.401 64.412,55.490 63.693 C 55.579 62.974,55.577 61.894,55.486 61.293 C 55.395 60.692,55.322 61.280,55.324 62.600 M50.981 83.400 C 50.981 91.540,51.034 94.813,51.100 90.674 C 51.165 86.534,51.165 79.874,51.099 75.874 C 51.034 71.873,50.981 75.260,50.981 83.400 M348.581 83.400 C 348.581 91.540,348.634 94.813,348.700 90.674 C 348.765 86.534,348.765 79.874,348.699 75.874 C 348.634 71.873,348.581 75.260,348.581 83.400 M52.134 104.800 C 52.134 106.450,52.205 107.125,52.291 106.300 C 52.378 105.475,52.378 104.125,52.291 103.300 C 52.205 102.475,52.134 103.150,52.134 104.800 M54.124 104.200 C 54.126 105.520,54.201 106.012,54.290 105.293 C 54.379 104.574,54.377 103.494,54.286 102.893 C 54.195 102.292,54.122 102.880,54.124 104.200 M55.324 104.200 C 55.326 105.520,55.401 106.012,55.490 105.293 C 55.579 104.574,55.577 103.494,55.486 102.893 C 55.395 102.292,55.322 102.880,55.324 104.200 M341.494 107.439 C 341.090 107.844,341.650 108.800,342.292 108.800 C 342.811 108.800,342.819 108.703,342.349 108.123 C 341.881 107.547,341.883 107.497,342.362 107.785 C 342.743 108.015,342.832 107.975,342.638 107.662 C 342.326 107.156,341.867 107.067,341.494 107.439 M134.300 116.700 C 170.435 116.756,229.565 116.756,265.700 116.700 C 301.835 116.644,272.270 116.598,200.000 116.598 C 127.730 116.598,98.165 116.644,134.300 116.700 M68.800 168.000 C 68.800 168.266,112.800 168.400,200.000 168.400 C 287.200 168.400,331.200 168.266,331.200 168.000 C 331.200 167.734,287.200 167.600,200.000 167.600 C 112.800 167.600,68.800 167.734,68.800 168.000 M60.691 169.089 C 61.401 169.177,62.661 169.179,63.491 169.092 C 64.321 169.005,63.740 168.933,62.200 168.931 C 60.660 168.929,59.981 169.000,60.691 169.089 M68.756 169.900 C 68.731 170.505,68.746 171.416,68.788 171.925 C 68.835 172.495,68.660 172.822,68.332 172.777 C 68.039 172.738,66.135 172.727,64.100 172.753 L 60.400 172.800 60.400 175.000 L 60.400 177.200 58.157 177.200 L 55.913 177.200 56.167 181.411 L 56.420 185.622 54.210 185.500 L 52.000 185.379 52.000 200.089 L 52.000 214.800 53.100 214.842 C 53.705 214.866,54.707 214.851,55.328 214.809 L 56.455 214.734 56.328 218.867 L 56.200 223.000 58.300 223.121 L 60.400 223.242 60.400 225.221 L 60.400 227.200 64.630 227.200 L 68.860 227.200 68.788 228.300 C 68.748 228.905,68.734 229.895,68.758 230.500 L 68.800 231.600 199.976 231.600 C 288.399 231.600,331.235 231.732,331.404 232.007 C 331.542 232.230,331.832 232.304,332.047 232.171 C 332.298 232.016,332.287 231.745,332.014 231.417 C 331.781 231.136,331.620 230.090,331.658 229.093 L 331.727 227.280 335.739 227.231 C 340.435 227.174,339.971 227.405,340.059 225.078 L 340.129 223.210 342.165 223.305 L 344.200 223.400 344.075 219.100 L 343.950 214.800 345.895 214.800 C 346.965 214.800,348.048 215.008,348.302 215.262 C 348.650 215.610,348.746 212.019,348.693 200.562 L 348.624 185.400 348.404 200.200 L 348.185 215.000 348.093 200.300 L 348.000 185.600 346.037 185.600 L 344.074 185.600 344.032 181.529 C 343.984 176.783,344.160 177.133,341.823 177.133 C 340.653 177.133,340.001 176.963,340.038 176.667 C 340.069 176.410,340.073 175.435,340.047 174.500 L 340.000 172.800 335.800 172.800 L 331.600 172.800 331.600 170.800 L 331.600 168.800 200.200 168.800 L 68.800 168.800 68.756 169.900 M336.700 169.089 C 337.415 169.178,338.585 169.178,339.300 169.089 C 340.015 169.001,339.430 168.928,338.000 168.928 C 336.570 168.928,335.985 169.001,336.700 169.089 M66.107 169.900 C 66.174 170.854,66.960 171.112,67.438 170.338 C 67.609 170.061,67.549 169.985,67.286 170.147 C 67.046 170.295,66.668 170.098,66.447 169.708 C 66.089 169.080,66.051 169.101,66.107 169.900 M332.855 170.533 C 332.520 170.937,332.557 171.067,333.006 171.067 C 333.333 171.067,333.600 170.906,333.600 170.710 C 333.600 170.513,333.780 170.464,334.000 170.600 C 334.220 170.736,334.400 170.657,334.400 170.424 C 334.400 169.825,333.383 169.897,332.855 170.533 M335.363 171.290 C 335.432 171.627,336.192 171.800,337.600 171.800 C 339.008 171.800,339.768 171.627,339.837 171.290 C 339.894 171.010,339.849 170.965,339.737 171.190 C 339.625 171.416,338.663 171.600,337.600 171.600 C 336.537 171.600,335.575 171.416,335.463 171.190 C 335.351 170.965,335.307 171.010,335.363 171.290 M62.600 171.647 L 60.200 171.906 62.701 171.853 C 64.076 171.824,65.277 171.980,65.369 172.200 C 65.461 172.420,65.551 172.386,65.568 172.124 C 65.615 171.421,65.245 171.362,62.600 171.647 M52.000 178.373 C 52.000 181.092,51.978 181.150,50.900 181.313 C 49.876 181.469,49.890 181.484,51.100 181.540 L 52.400 181.600 52.400 178.600 C 52.400 176.950,52.310 175.600,52.200 175.600 C 52.090 175.600,52.000 176.848,52.000 178.373 M54.120 179.200 C 54.120 180.410,54.195 180.905,54.287 180.300 C 54.378 179.695,54.378 178.705,54.287 178.100 C 54.195 177.495,54.120 177.990,54.120 179.200 M55.320 179.200 C 55.320 180.410,55.395 180.905,55.487 180.300 C 55.578 179.695,55.578 178.705,55.487 178.100 C 55.395 177.495,55.320 177.990,55.320 179.200 M345.200 179.200 C 345.200 180.300,345.380 181.200,345.600 181.200 C 345.820 181.200,346.000 180.300,346.000 179.200 C 346.000 178.100,345.820 177.200,345.600 177.200 C 345.380 177.200,345.200 178.100,345.200 179.200 M50.295 185.490 C 50.669 185.755,50.817 189.399,50.903 200.420 L 51.015 215.000 51.008 200.233 C 51.001 187.451,50.919 185.444,50.400 185.303 C 49.961 185.183,49.933 185.233,50.295 185.490 M52.134 221.600 C 52.134 223.250,52.205 223.925,52.291 223.100 C 52.378 222.275,52.378 220.925,52.291 220.100 C 52.205 219.275,52.134 219.950,52.134 221.600 M54.120 220.800 C 54.120 222.010,54.195 222.505,54.287 221.900 C 54.378 221.295,54.378 220.305,54.287 219.700 C 54.195 219.095,54.120 219.590,54.120 220.800 M55.324 221.000 C 55.326 222.320,55.401 222.812,55.490 222.093 C 55.579 221.374,55.577 220.294,55.486 219.693 C 55.395 219.092,55.322 219.680,55.324 221.000 M345.200 220.800 C 345.200 221.900,345.380 222.800,345.600 222.800 C 345.820 222.800,346.000 221.900,346.000 220.800 C 346.000 219.700,345.820 218.800,345.600 218.800 C 345.380 218.800,345.200 219.700,345.200 220.800 M61.507 227.890 C 62.226 227.979,63.306 227.977,63.907 227.886 C 64.508 227.795,63.920 227.722,62.600 227.724 C 61.280 227.726,60.788 227.801,61.507 227.890 M335.062 227.900 C 334.960 228.065,335.714 228.147,336.738 228.083 C 339.912 227.884,340.309 227.711,337.724 227.654 C 336.362 227.625,335.164 227.735,335.062 227.900 M334.506 229.573 C 333.783 230.176,333.725 230.363,334.206 230.547 C 334.533 230.672,334.800 230.590,334.800 230.364 C 334.800 230.138,334.941 230.040,335.114 230.147 C 335.287 230.254,335.429 229.994,335.429 229.571 C 335.429 229.147,335.422 228.806,335.414 228.813 C 335.406 228.821,334.998 229.162,334.506 229.573 M68.800 287.400 L 68.800 289.600 64.600 289.600 L 60.400 289.600 60.356 290.700 C 60.331 291.305,60.346 292.216,60.388 292.725 C 60.435 293.295,60.260 293.622,59.932 293.577 C 59.639 293.538,58.617 293.527,57.661 293.553 L 55.921 293.600 56.165 297.819 C 56.355 301.095,56.297 302.023,55.905 301.971 C 55.627 301.935,54.635 301.927,53.700 301.953 L 52.000 302.000 52.000 316.800 L 52.000 331.600 53.700 331.647 C 54.635 331.673,55.624 331.666,55.899 331.630 C 56.261 331.583,56.356 332.196,56.246 333.883 C 56.162 335.157,56.044 337.010,55.982 338.000 L 55.870 339.800 55.588 337.600 L 55.306 335.400 55.353 337.564 C 55.405 339.947,55.352 339.907,58.695 340.055 L 60.390 340.129 60.295 342.165 L 60.200 344.200 64.500 344.075 L 68.800 343.950 68.800 345.975 L 68.800 348.000 200.200 348.000 L 331.600 348.000 331.647 346.500 C 331.673 345.675,331.662 344.761,331.623 344.468 C 331.578 344.140,331.905 343.965,332.475 344.012 C 332.984 344.054,334.930 344.069,336.800 344.045 L 340.200 344.000 340.059 341.959 L 339.917 339.917 341.959 340.059 L 344.000 340.200 344.045 336.800 C 344.069 334.930,344.054 332.984,344.012 332.475 C 343.965 331.905,344.140 331.578,344.468 331.623 C 344.761 331.662,345.675 331.673,346.500 331.647 L 348.000 331.600 348.000 316.800 L 348.000 302.000 346.500 301.953 C 345.675 301.927,344.761 301.938,344.468 301.977 C 344.140 302.022,343.965 301.695,344.012 301.125 C 344.054 300.616,344.069 298.715,344.044 296.900 L 344.000 293.600 342.000 293.600 L 340.000 293.600 340.000 291.600 L 340.000 289.600 336.700 289.556 C 334.885 289.531,333.025 289.540,332.566 289.576 C 331.839 289.632,331.722 289.400,331.661 287.774 C 331.622 286.747,331.492 285.748,331.371 285.554 C 331.245 285.350,275.561 285.200,199.976 285.200 L 68.800 285.200 68.800 287.400 M59.625 287.400 C 59.625 288.551,60.750 289.200,62.744 289.200 C 63.875 289.200,64.800 289.020,64.800 288.800 C 64.800 288.580,63.875 288.400,62.744 288.400 C 61.255 288.400,60.542 288.207,60.157 287.700 C 59.865 287.315,59.625 287.180,59.625 287.400 M335.249 288.300 C 335.822 289.248,339.600 289.683,339.600 288.800 C 339.600 288.580,338.736 288.400,337.680 288.400 C 336.624 288.400,335.523 288.175,335.233 287.900 C 334.819 287.507,334.822 287.593,335.249 288.300 M52.134 295.200 C 52.134 296.850,52.205 297.525,52.291 296.700 C 52.378 295.875,52.378 294.525,52.291 293.700 C 52.205 292.875,52.134 293.550,52.134 295.200 M53.934 295.718 C 54.007 297.083,54.199 298.338,54.360 298.506 C 54.718 298.881,54.416 293.913,54.057 293.518 C 53.915 293.364,53.860 294.354,53.934 295.718 M55.324 295.800 C 55.326 297.120,55.401 297.612,55.490 296.893 C 55.579 296.174,55.577 295.094,55.486 294.493 C 55.395 293.892,55.322 294.480,55.324 295.800 M345.134 296.241 C 345.060 297.693,345.152 299.088,345.338 299.341 C 345.549 299.628,345.591 299.537,345.450 299.100 C 345.326 298.715,345.399 298.400,345.613 298.400 C 345.826 298.400,346.000 297.320,346.000 296.000 C 346.000 292.747,345.302 292.942,345.134 296.241 M53.689 300.223 C 53.200 300.565,52.800 301.015,52.800 301.223 C 52.800 301.430,53.167 301.233,53.615 300.785 C 54.063 300.337,54.630 300.095,54.876 300.247 C 55.148 300.415,55.212 300.343,55.038 300.062 C 54.683 299.487,54.751 299.479,53.689 300.223 M51.244 301.747 C 50.919 302.139,50.821 306.432,50.900 316.847 L 51.010 331.400 51.105 316.780 C 51.175 306.052,51.328 302.032,51.680 301.680 C 51.944 301.416,52.056 301.200,51.929 301.200 C 51.802 301.200,51.494 301.446,51.244 301.747 M348.581 316.800 C 348.581 325.050,348.634 328.425,348.699 324.300 C 348.764 320.175,348.764 313.425,348.699 309.300 C 348.634 305.175,348.581 308.550,348.581 316.800 M345.830 333.733 C 345.942 334.027,346.294 334.267,346.611 334.267 C 347.046 334.267,347.079 334.136,346.745 333.733 C 346.501 333.440,346.150 333.200,345.964 333.200 C 345.777 333.200,345.717 333.440,345.830 333.733 M52.134 338.400 C 52.134 340.050,52.205 340.725,52.291 339.900 C 52.378 339.075,52.378 337.725,52.291 336.900 C 52.205 336.075,52.134 336.750,52.134 338.400 M54.120 337.600 C 54.120 338.810,54.195 339.305,54.287 338.700 C 54.378 338.095,54.378 337.105,54.287 336.500 C 54.195 335.895,54.120 336.390,54.120 337.600 M345.200 337.520 C 345.200 338.576,344.975 339.677,344.700 339.967 C 344.307 340.381,344.393 340.378,345.100 339.951 C 346.048 339.378,346.483 335.600,345.600 335.600 C 345.380 335.600,345.200 336.464,345.200 337.520 M57.182 342.011 C 56.883 342.196,56.955 342.374,57.399 342.544 C 58.281 342.883,58.283 342.882,58.519 342.267 C 58.736 341.700,57.933 341.547,57.182 342.011 M339.800 344.800 C 339.664 345.020,338.663 345.200,337.576 345.200 C 336.489 345.200,335.600 345.380,335.600 345.600 C 335.600 346.410,339.370 346.060,339.907 345.200 C 340.182 344.760,340.326 344.400,340.227 344.400 C 340.128 344.400,339.936 344.580,339.800 344.800 M60.081 345.700 C 59.753 346.094,60.252 346.172,62.432 346.067 C 63.955 345.994,65.200 345.769,65.200 345.567 C 65.200 345.001,60.563 345.122,60.081 345.700 M333.200 345.964 C 333.200 346.150,333.440 346.501,333.733 346.745 C 334.136 347.079,334.267 347.046,334.267 346.611 C 334.267 346.294,334.027 345.942,333.733 345.830 C 333.440 345.717,333.200 345.777,333.200 345.964 M134.268 348.700 C 170.385 348.756,229.605 348.756,265.868 348.700 C 302.130 348.644,272.580 348.598,200.200 348.598 C 127.820 348.598,98.150 348.644,134.268 348.700 " stroke="none" fill="#20343c" fill-rule="evenodd"></path><path id="path4" d="M134.300 51.100 C 170.435 51.156,229.565 51.156,265.700 51.100 C 301.835 51.044,272.270 50.998,200.000 50.998 C 127.730 50.998,98.165 51.044,134.300 51.100 M60.311 52.293 C 61.251 52.378,62.691 52.377,63.511 52.291 C 64.330 52.205,63.560 52.136,61.800 52.137 C 60.040 52.139,59.370 52.209,60.311 52.293 M68.758 53.100 C 68.734 53.705,68.750 54.713,68.792 55.341 L 68.869 56.482 64.634 56.193 L 60.400 55.904 60.400 58.152 L 60.400 60.400 58.152 60.400 L 55.904 60.400 56.193 64.634 L 56.482 68.869 55.341 68.792 C 54.713 68.750,53.705 68.734,53.100 68.758 L 52.000 68.800 52.000 83.400 L 52.000 98.000 53.100 98.042 C 53.705 98.066,54.700 98.052,55.311 98.011 L 56.422 97.937 56.168 102.169 L 55.913 106.400 58.157 106.400 L 60.400 106.400 60.400 108.600 L 60.400 110.800 64.100 110.847 C 66.135 110.873,68.039 110.862,68.332 110.823 C 68.660 110.778,68.835 111.105,68.788 111.675 C 68.746 112.184,68.731 113.095,68.756 113.700 L 68.800 114.800 200.200 114.800 L 331.600 114.800 331.600 112.800 L 331.600 110.800 335.571 110.800 C 339.016 110.800,339.566 110.893,339.724 111.500 C 339.898 112.167,339.909 112.167,339.954 111.500 C 339.979 111.115,340.259 110.800,340.576 110.800 C 340.893 110.800,341.254 110.637,341.377 110.437 C 341.500 110.238,341.237 110.170,340.791 110.286 C 340.052 110.480,339.988 110.325,340.053 108.487 L 340.124 106.476 342.120 106.460 C 343.603 106.449,343.999 106.561,343.663 106.897 C 343.327 107.233,343.376 107.532,343.855 108.061 C 344.465 108.735,344.540 108.694,345.250 107.302 C 346.051 105.731,346.330 101.349,345.600 101.800 C 345.380 101.936,345.200 103.038,345.200 104.250 C 345.200 106.554,344.632 108.191,343.973 107.784 C 343.761 107.652,343.699 107.363,343.837 107.140 C 343.974 106.918,344.074 104.770,344.058 102.368 L 344.029 98.000 346.015 98.000 L 348.000 98.000 348.000 83.400 L 348.000 68.800 345.975 68.800 L 343.950 68.800 344.075 64.500 L 344.200 60.200 342.165 60.295 L 340.129 60.390 340.055 58.695 C 339.907 55.352,339.947 55.405,337.564 55.353 L 335.400 55.306 337.600 55.588 L 339.800 55.870 338.000 55.982 C 337.010 56.044,335.157 56.162,333.883 56.246 C 332.196 56.356,331.583 56.261,331.630 55.899 C 331.666 55.624,331.673 54.635,331.647 53.700 L 331.600 52.000 200.200 52.000 L 68.800 52.000 68.758 53.100 M336.900 52.291 C 337.725 52.378,339.075 52.378,339.900 52.291 C 340.725 52.205,340.050 52.134,338.400 52.134 C 336.750 52.134,336.075 52.205,336.900 52.291 M60.800 54.227 C 62.144 54.527,65.111 54.580,64.938 54.300 C 64.836 54.135,63.728 54.021,62.476 54.046 C 61.224 54.072,60.470 54.153,60.800 54.227 M336.500 54.287 C 337.105 54.378,338.095 54.378,338.700 54.287 C 339.305 54.195,338.810 54.120,337.600 54.120 C 336.390 54.120,335.895 54.195,336.500 54.287 M61.507 55.490 C 62.226 55.579,63.306 55.577,63.907 55.486 C 64.508 55.395,63.920 55.322,62.600 55.324 C 61.280 55.326,60.788 55.401,61.507 55.490 M342.201 56.798 C 341.666 57.665,341.655 58.754,342.183 58.551 C 342.474 58.439,342.687 57.910,342.656 57.374 C 342.593 56.284,342.552 56.231,342.201 56.798 M57.711 58.413 C 57.764 59.117,57.820 59.125,58.484 58.524 C 59.359 57.732,59.363 57.783,58.427 57.712 C 57.897 57.672,57.672 57.892,57.711 58.413 M52.137 61.800 C 52.139 63.560,52.209 64.230,52.293 63.289 C 52.378 62.349,52.377 60.909,52.291 60.089 C 52.205 59.270,52.136 60.040,52.137 61.800 M345.680 60.080 C 345.122 60.638,345.022 65.200,345.567 65.200 C 345.769 65.200,345.994 63.940,346.067 62.399 C 346.140 60.859,346.191 59.599,346.180 59.599 C 346.169 59.600,345.944 59.816,345.680 60.080 M54.046 62.476 C 54.021 63.728,54.135 64.836,54.300 64.938 C 54.465 65.040,54.546 64.286,54.480 63.262 C 54.293 60.341,54.097 59.986,54.046 62.476 M55.324 62.600 C 55.326 63.920,55.401 64.412,55.490 63.693 C 55.579 62.974,55.577 61.894,55.486 61.293 C 55.395 60.692,55.322 61.280,55.324 62.600 M50.981 83.400 C 50.981 91.540,51.034 94.813,51.100 90.674 C 51.165 86.534,51.165 79.874,51.099 75.874 C 51.034 71.873,50.981 75.260,50.981 83.400 M348.581 83.400 C 348.581 91.540,348.634 94.813,348.700 90.674 C 348.765 86.534,348.765 79.874,348.699 75.874 C 348.634 71.873,348.581 75.260,348.581 83.400 M52.134 104.800 C 52.134 106.450,52.205 107.125,52.291 106.300 C 52.378 105.475,52.378 104.125,52.291 103.300 C 52.205 102.475,52.134 103.150,52.134 104.800 M54.124 104.200 C 54.126 105.520,54.201 106.012,54.290 105.293 C 54.379 104.574,54.377 103.494,54.286 102.893 C 54.195 102.292,54.122 102.880,54.124 104.200 M55.324 104.200 C 55.326 105.520,55.401 106.012,55.490 105.293 C 55.579 104.574,55.577 103.494,55.486 102.893 C 55.395 102.292,55.322 102.880,55.324 104.200 M341.494 107.439 C 341.090 107.844,341.650 108.800,342.292 108.800 C 342.811 108.800,342.819 108.703,342.349 108.123 C 341.881 107.547,341.883 107.497,342.362 107.785 C 342.743 108.015,342.832 107.975,342.638 107.662 C 342.326 107.156,341.867 107.067,341.494 107.439 M134.300 116.700 C 170.435 116.756,229.565 116.756,265.700 116.700 C 301.835 116.644,272.270 116.598,200.000 116.598 C 127.730 116.598,98.165 116.644,134.300 116.700 M68.800 168.000 C 68.800 168.266,112.800 168.400,200.000 168.400 C 287.200 168.400,331.200 168.266,331.200 168.000 C 331.200 167.734,287.200 167.600,200.000 167.600 C 112.800 167.600,68.800 167.734,68.800 168.000 M60.691 169.089 C 61.401 169.177,62.661 169.179,63.491 169.092 C 64.321 169.005,63.740 168.933,62.200 168.931 C 60.660 168.929,59.981 169.000,60.691 169.089 M68.756 169.900 C 68.731 170.505,68.746 171.416,68.788 171.925 C 68.835 172.495,68.660 172.822,68.332 172.777 C 68.039 172.738,66.135 172.727,64.100 172.753 L 60.400 172.800 60.400 175.000 L 60.400 177.200 58.157 177.200 L 55.913 177.200 56.167 181.411 L 56.420 185.622 54.210 185.500 L 52.000 185.379 52.000 200.089 L 52.000 214.800 53.100 214.842 C 53.705 214.866,54.707 214.851,55.328 214.809 L 56.455 214.734 56.328 218.867 L 56.200 223.000 58.300 223.121 L 60.400 223.242 60.400 225.221 L 60.400 227.200 64.630 227.200 L 68.860 227.200 68.788 228.300 C 68.748 228.905,68.734 229.895,68.758 230.500 L 68.800 231.600 199.976 231.600 C 288.399 231.600,331.235 231.732,331.404 232.007 C 331.542 232.230,331.832 232.304,332.047 232.171 C 332.298 232.016,332.287 231.745,332.014 231.417 C 331.781 231.136,331.620 230.090,331.658 229.093 L 331.727 227.280 335.739 227.231 C 340.435 227.174,339.971 227.405,340.059 225.078 L 340.129 223.210 342.165 223.305 L 344.200 223.400 344.075 219.100 L 343.950 214.800 345.895 214.800 C 346.965 214.800,348.048 215.008,348.302 215.262 C 348.650 215.610,348.746 212.019,348.693 200.562 L 348.624 185.400 348.404 200.200 L 348.185 215.000 348.093 200.300 L 348.000 185.600 346.037 185.600 L 344.074 185.600 344.032 181.529 C 343.984 176.783,344.160 177.133,341.823 177.133 C 340.653 177.133,340.001 176.963,340.038 176.667 C 340.069 176.410,340.073 175.435,340.047 174.500 L 340.000 172.800 335.800 172.800 L 331.600 172.800 331.600 170.800 L 331.600 168.800 200.200 168.800 L 68.800 168.800 68.756 169.900 M336.700 169.089 C 337.415 169.178,338.585 169.178,339.300 169.089 C 340.015 169.001,339.430 168.928,338.000 168.928 C 336.570 168.928,335.985 169.001,336.700 169.089 M66.107 169.900 C 66.174 170.854,66.960 171.112,67.438 170.338 C 67.609 170.061,67.549 169.985,67.286 170.147 C 67.046 170.295,66.668 170.098,66.447 169.708 C 66.089 169.080,66.051 169.101,66.107 169.900 M332.855 170.533 C 332.520 170.937,332.557 171.067,333.006 171.067 C 333.333 171.067,333.600 170.906,333.600 170.710 C 333.600 170.513,333.780 170.464,334.000 170.600 C 334.220 170.736,334.400 170.657,334.400 170.424 C 334.400 169.825,333.383 169.897,332.855 170.533 M335.363 171.290 C 335.432 171.627,336.192 171.800,337.600 171.800 C 339.008 171.800,339.768 171.627,339.837 171.290 C 339.894 171.010,339.849 170.965,339.737 171.190 C 339.625 171.416,338.663 171.600,337.600 171.600 C 336.537 171.600,335.575 171.416,335.463 171.190 C 335.351 170.965,335.307 171.010,335.363 171.290 M62.600 171.647 L 60.200 171.906 62.701 171.853 C 64.076 171.824,65.277 171.980,65.369 172.200 C 65.461 172.420,65.551 172.386,65.568 172.124 C 65.615 171.421,65.245 171.362,62.600 171.647 M52.000 178.373 C 52.000 181.092,51.978 181.150,50.900 181.313 C 49.876 181.469,49.890 181.484,51.100 181.540 L 52.400 181.600 52.400 178.600 C 52.400 176.950,52.310 175.600,52.200 175.600 C 52.090 175.600,52.000 176.848,52.000 178.373 M54.120 179.200 C 54.120 180.410,54.195 180.905,54.287 180.300 C 54.378 179.695,54.378 178.705,54.287 178.100 C 54.195 177.495,54.120 177.990,54.120 179.200 M55.320 179.200 C 55.320 180.410,55.395 180.905,55.487 180.300 C 55.578 179.695,55.578 178.705,55.487 178.100 C 55.395 177.495,55.320 177.990,55.320 179.200 M345.200 179.200 C 345.200 180.300,345.380 181.200,345.600 181.200 C 345.820 181.200,346.000 180.300,346.000 179.200 C 346.000 178.100,345.820 177.200,345.600 177.200 C 345.380 177.200,345.200 178.100,345.200 179.200 M50.295 185.490 C 50.669 185.755,50.817 189.399,50.903 200.420 L 51.015 215.000 51.008 200.233 C 51.001 187.451,50.919 185.444,50.400 185.303 C 49.961 185.183,49.933 185.233,50.295 185.490 M52.134 221.600 C 52.134 223.250,52.205 223.925,52.291 223.100 C 52.378 222.275,52.378 220.925,52.291 220.100 C 52.205 219.275,52.134 219.950,52.134 221.600 M54.120 220.800 C 54.120 222.010,54.195 222.505,54.287 221.900 C 54.378 221.295,54.378 220.305,54.287 219.700 C 54.195 219.095,54.120 219.590,54.120 220.800 M55.324 221.000 C 55.326 222.320,55.401 222.812,55.490 222.093 C 55.579 221.374,55.577 220.294,55.486 219.693 C 55.395 219.092,55.322 219.680,55.324 221.000 M345.200 220.800 C 345.200 221.900,345.380 222.800,345.600 222.800 C 345.820 222.800,346.000 221.900,346.000 220.800 C 346.000 219.700,345.820 218.800,345.600 218.800 C 345.380 218.800,345.200 219.700,345.200 220.800 M61.507 227.890 C 62.226 227.979,63.306 227.977,63.907 227.886 C 64.508 227.795,63.920 227.722,62.600 227.724 C 61.280 227.726,60.788 227.801,61.507 227.890 M335.062 227.900 C 334.960 228.065,335.714 228.147,336.738 228.083 C 339.912 227.884,340.309 227.711,337.724 227.654 C 336.362 227.625,335.164 227.735,335.062 227.900 M334.506 229.573 C 333.783 230.176,333.725 230.363,334.206 230.547 C 334.533 230.672,334.800 230.590,334.800 230.364 C 334.800 230.138,334.941 230.040,335.114 230.147 C 335.287 230.254,335.429 229.994,335.429 229.571 C 335.429 229.147,335.422 228.806,335.414 228.813 C 335.406 228.821,334.998 229.162,334.506 229.573 M68.800 287.400 L 68.800 289.600 64.600 289.600 L 60.400 289.600 60.356 290.700 C 60.331 291.305,60.346 292.216,60.388 292.725 C 60.435 293.295,60.260 293.622,59.932 293.577 C 59.639 293.538,58.617 293.527,57.661 293.553 L 55.921 293.600 56.165 297.819 C 56.355 301.095,56.297 302.023,55.905 301.971 C 55.627 301.935,54.635 301.927,53.700 301.953 L 52.000 302.000 52.000 316.800 L 52.000 331.600 53.700 331.647 C 54.635 331.673,55.624 331.666,55.899 331.630 C 56.261 331.583,56.356 332.196,56.246 333.883 C 56.162 335.157,56.044 337.010,55.982 338.000 L 55.870 339.800 55.588 337.600 L 55.306 335.400 55.353 337.564 C 55.405 339.947,55.352 339.907,58.695 340.055 L 60.390 340.129 60.295 342.165 L 60.200 344.200 64.500 344.075 L 68.800 343.950 68.800 345.975 L 68.800 348.000 200.200 348.000 L 331.600 348.000 331.647 346.500 C 331.673 345.675,331.662 344.761,331.623 344.468 C 331.578 344.140,331.905 343.965,332.475 344.012 C 332.984 344.054,334.930 344.069,336.800 344.045 L 340.200 344.000 340.059 341.959 L 339.917 339.917 341.959 340.059 L 344.000 340.200 344.045 336.800 C 344.069 334.930,344.054 332.984,344.012 332.475 C 343.965 331.905,344.140 331.578,344.468 331.623 C 344.761 331.662,345.675 331.673,346.500 331.647 L 348.000 331.600 348.000 316.800 L 348.000 302.000 346.500 301.953 C 345.675 301.927,344.761 301.938,344.468 301.977 C 344.140 302.022,343.965 301.695,344.012 301.125 C 344.054 300.616,344.069 298.715,344.044 296.900 L 344.000 293.600 342.000 293.600 L 340.000 293.600 340.000 291.600 L 340.000 289.600 336.700 289.556 C 334.885 289.531,333.025 289.540,332.566 289.576 C 331.839 289.632,331.722 289.400,331.661 287.774 C 331.622 286.747,331.492 285.748,331.371 285.554 C 331.245 285.350,275.561 285.200,199.976 285.200 L 68.800 285.200 68.800 287.400 M59.625 287.400 C 59.625 288.551,60.750 289.200,62.744 289.200 C 63.875 289.200,64.800 289.020,64.800 288.800 C 64.800 288.580,63.875 288.400,62.744 288.400 C 61.255 288.400,60.542 288.207,60.157 287.700 C 59.865 287.315,59.625 287.180,59.625 287.400 M335.249 288.300 C 335.822 289.248,339.600 289.683,339.600 288.800 C 339.600 288.580,338.736 288.400,337.680 288.400 C 336.624 288.400,335.523 288.175,335.233 287.900 C 334.819 287.507,334.822 287.593,335.249 288.300 M52.134 295.200 C 52.134 296.850,52.205 297.525,52.291 296.700 C 52.378 295.875,52.378 294.525,52.291 293.700 C 52.205 292.875,52.134 293.550,52.134 295.200 M53.934 295.718 C 54.007 297.083,54.199 298.338,54.360 298.506 C 54.718 298.881,54.416 293.913,54.057 293.518 C 53.915 293.364,53.860 294.354,53.934 295.718 M55.324 295.800 C 55.326 297.120,55.401 297.612,55.490 296.893 C 55.579 296.174,55.577 295.094,55.486 294.493 C 55.395 293.892,55.322 294.480,55.324 295.800 M345.134 296.241 C 345.060 297.693,345.152 299.088,345.338 299.341 C 345.549 299.628,345.591 299.537,345.450 299.100 C 345.326 298.715,345.399 298.400,345.613 298.400 C 345.826 298.400,346.000 297.320,346.000 296.000 C 346.000 292.747,345.302 292.942,345.134 296.241 M53.689 300.223 C 53.200 300.565,52.800 301.015,52.800 301.223 C 52.800 301.430,53.167 301.233,53.615 300.785 C 54.063 300.337,54.630 300.095,54.876 300.247 C 55.148 300.415,55.212 300.343,55.038 300.062 C 54.683 299.487,54.751 299.479,53.689 300.223 M51.244 301.747 C 50.919 302.139,50.821 306.432,50.900 316.847 L 51.010 331.400 51.105 316.780 C 51.175 306.052,51.328 302.032,51.680 301.680 C 51.944 301.416,52.056 301.200,51.929 301.200 C 51.802 301.200,51.494 301.446,51.244 301.747 M348.581 316.800 C 348.581 325.050,348.634 328.425,348.699 324.300 C 348.764 320.175,348.764 313.425,348.699 309.300 C 348.634 305.175,348.581 308.550,348.581 316.800 M345.830 333.733 C 345.942 334.027,346.294 334.267,346.611 334.267 C 347.046 334.267,347.079 334.136,346.745 333.733 C 346.501 333.440,346.150 333.200,345.964 333.200 C 345.777 333.200,345.717 333.440,345.830 333.733 M52.134 338.400 C 52.134 340.050,52.205 340.725,52.291 339.900 C 52.378 339.075,52.378 337.725,52.291 336.900 C 52.205 336.075,52.134 336.750,52.134 338.400 M54.120 337.600 C 54.120 338.810,54.195 339.305,54.287 338.700 C 54.378 338.095,54.378 337.105,54.287 336.500 C 54.195 335.895,54.120 336.390,54.120 337.600 M345.200 337.520 C 345.200 338.576,344.975 339.677,344.700 339.967 C 344.307 340.381,344.393 340.378,345.100 339.951 C 346.048 339.378,346.483 335.600,345.600 335.600 C 345.380 335.600,345.200 336.464,345.200 337.520 M57.182 342.011 C 56.883 342.196,56.955 342.374,57.399 342.544 C 58.281 342.883,58.283 342.882,58.519 342.267 C 58.736 341.700,57.933 341.547,57.182 342.011 M339.800 344.800 C 339.664 345.020,338.663 345.200,337.576 345.200 C 336.489 345.200,335.600 345.380,335.600 345.600 C 335.600 346.410,339.370 346.060,339.907 345.200 C 340.182 344.760,340.326 344.400,340.227 344.400 C 340.128 344.400,339.936 344.580,339.800 344.800 M60.081 345.700 C 59.753 346.094,60.252 346.172,62.432 346.067 C 63.955 345.994,65.200 345.769,65.200 345.567 C 65.200 345.001,60.563 345.122,60.081 345.700 M333.200 345.964 C 333.200 346.150,333.440 346.501,333.733 346.745 C 334.136 347.079,334.267 347.046,334.267 346.611 C 334.267 346.294,334.027 345.942,333.733 345.830 C 333.440 345.717,333.200 345.777,333.200 345.964 M134.268 348.700 C 170.385 348.756,229.605 348.756,265.868 348.700 C 302.130 348.644,272.580 348.598,200.200 348.598 C 127.820 348.598,98.150 348.644,134.268 348.700 " stroke="none" fill="#20343c" fill-rule="evenodd"></path></g></svg>